<svg width="331" height="418" viewBox="0 0 331 418" fill="none" xmlns="http://www.w3.org/2000/svg">
<g filter="url(#filter0_d_190_3186)">
<ellipse cx="189.777" cy="282.763" rx="131.951" ry="63.8472" fill="#292929"/>
<path d="M136.619 265.727H135.309L130.898 255.691H130.68V269.373H132.796C133.069 269.373 133.265 269.427 133.383 269.536C133.502 269.637 133.561 269.773 133.561 269.946C133.561 270.11 133.502 270.246 133.383 270.356C133.265 270.465 133.069 270.52 132.796 270.52H128.563C128.29 270.52 128.094 270.465 127.976 270.356C127.858 270.246 127.799 270.11 127.799 269.946C127.799 269.773 127.858 269.637 127.976 269.536C128.094 269.427 128.29 269.373 128.563 269.373H129.533V255.691H128.809C128.536 255.691 128.34 255.64 128.222 255.54C128.103 255.431 128.044 255.29 128.044 255.117C128.044 254.944 128.103 254.808 128.222 254.707C128.34 254.598 128.536 254.544 128.809 254.544H131.622L135.964 264.43L140.238 254.544H143.051C143.333 254.544 143.533 254.598 143.652 254.707C143.77 254.808 143.829 254.944 143.829 255.117C143.829 255.29 143.77 255.431 143.652 255.54C143.533 255.64 143.333 255.691 143.051 255.691H142.341V269.373H143.297C143.579 269.373 143.779 269.427 143.897 269.536C144.016 269.637 144.075 269.773 144.075 269.946C144.075 270.11 144.016 270.246 143.897 270.356C143.779 270.465 143.579 270.52 143.297 270.52H139.077C138.804 270.52 138.604 270.465 138.476 270.356C138.358 270.246 138.299 270.11 138.299 269.946C138.299 269.773 138.358 269.637 138.476 269.536C138.595 269.427 138.795 269.373 139.077 269.373H141.194V255.691H140.948L136.619 265.727ZM154.556 270.52V268.867C152.89 270.269 151.111 270.97 149.217 270.97C147.843 270.97 146.769 270.624 145.995 269.932C145.221 269.231 144.834 268.376 144.834 267.365C144.834 266.255 145.344 265.285 146.363 264.457C147.383 263.628 148.871 263.214 150.829 263.214C151.356 263.214 151.93 263.251 152.549 263.324C153.168 263.387 153.837 263.492 154.556 263.638V261.781C154.556 261.152 154.265 260.606 153.682 260.142C153.1 259.678 152.226 259.446 151.061 259.446C150.169 259.446 148.917 259.705 147.306 260.224C147.014 260.315 146.828 260.36 146.746 260.36C146.6 260.36 146.473 260.306 146.363 260.197C146.263 260.087 146.213 259.951 146.213 259.787C146.213 259.632 146.259 259.509 146.35 259.418C146.477 259.282 146.992 259.095 147.893 258.858C149.313 258.476 150.387 258.285 151.115 258.285C152.563 258.285 153.691 258.644 154.502 259.364C155.312 260.074 155.717 260.879 155.717 261.781V269.373H157.246C157.528 269.373 157.729 269.427 157.847 269.536C157.965 269.637 158.025 269.773 158.025 269.946C158.025 270.11 157.965 270.246 157.847 270.356C157.729 270.465 157.528 270.52 157.246 270.52H154.556ZM154.556 264.812C154.019 264.657 153.45 264.543 152.849 264.471C152.249 264.398 151.616 264.361 150.951 264.361C149.286 264.361 147.984 264.721 147.046 265.44C146.336 265.977 145.981 266.619 145.981 267.365C145.981 268.057 146.25 268.64 146.787 269.113C147.333 269.586 148.125 269.823 149.163 269.823C150.155 269.823 151.074 269.627 151.921 269.236C152.777 268.835 153.655 268.203 154.556 267.338V264.812ZM168.301 252.809V255.772H166.608V252.809H168.301ZM168.369 259.855H161.556C161.283 259.855 161.087 259.801 160.968 259.691C160.85 259.582 160.791 259.441 160.791 259.268C160.791 259.104 160.846 258.968 160.955 258.858C161.073 258.749 161.273 258.695 161.556 258.695H169.516V271.325C169.516 272.299 169.316 273.114 168.916 273.769C168.515 274.425 167.914 274.957 167.113 275.367C166.558 275.649 165.898 275.79 165.133 275.79H161.487C161.214 275.79 161.019 275.736 160.9 275.626C160.782 275.526 160.723 275.39 160.723 275.217C160.723 275.044 160.782 274.903 160.9 274.793C161.019 274.684 161.214 274.63 161.487 274.63L165.106 274.643C166.08 274.643 166.867 274.325 167.468 273.687C168.069 273.05 168.369 272.263 168.369 271.325V259.855ZM188.464 264.634C188.464 266.382 187.835 267.875 186.579 269.113C185.332 270.351 183.826 270.97 182.06 270.97C180.275 270.97 178.76 270.351 177.513 269.113C176.265 267.866 175.642 266.373 175.642 264.634C175.642 262.887 176.265 261.394 177.513 260.156C178.76 258.908 180.275 258.285 182.06 258.285C183.826 258.285 185.332 258.904 186.579 260.142C187.835 261.38 188.464 262.877 188.464 264.634ZM187.303 264.634C187.303 263.196 186.789 261.972 185.76 260.961C184.74 259.951 183.502 259.446 182.046 259.446C180.589 259.446 179.347 259.955 178.318 260.975C177.299 261.985 176.789 263.205 176.789 264.634C176.789 266.054 177.299 267.274 178.318 268.294C179.347 269.313 180.589 269.823 182.046 269.823C183.502 269.823 184.74 269.318 185.76 268.307C186.789 267.288 187.303 266.064 187.303 264.634ZM196.077 258.695V261.589C197.57 260.242 198.685 259.377 199.423 258.995C200.169 258.604 200.857 258.408 201.485 258.408C202.167 258.408 202.8 258.64 203.383 259.104C203.974 259.559 204.27 259.905 204.27 260.142C204.27 260.315 204.211 260.461 204.093 260.579C203.984 260.688 203.842 260.743 203.669 260.743C203.578 260.743 203.501 260.729 203.437 260.702C203.374 260.665 203.255 260.561 203.082 260.388C202.764 260.069 202.486 259.851 202.249 259.732C202.013 259.614 201.781 259.555 201.553 259.555C201.052 259.555 200.447 259.755 199.737 260.156C199.036 260.556 197.816 261.535 196.077 263.091V269.373H201.157C201.439 269.373 201.639 269.427 201.758 269.536C201.876 269.637 201.935 269.773 201.935 269.946C201.935 270.11 201.876 270.246 201.758 270.356C201.639 270.465 201.439 270.52 201.157 270.52H192.159C191.885 270.52 191.69 270.469 191.571 270.369C191.453 270.26 191.394 270.124 191.394 269.96C191.394 269.805 191.449 269.677 191.558 269.577C191.676 269.468 191.876 269.414 192.159 269.414H194.93V259.855H192.814C192.541 259.855 192.345 259.801 192.227 259.691C192.108 259.582 192.049 259.441 192.049 259.268C192.049 259.104 192.104 258.968 192.213 258.858C192.332 258.749 192.532 258.695 192.814 258.695H196.077ZM209.14 258.695V260.429C209.941 259.619 210.664 259.059 211.311 258.749C211.957 258.44 212.685 258.285 213.495 258.285C214.369 258.285 215.166 258.472 215.885 258.845C216.395 259.118 216.854 259.573 217.264 260.21C217.683 260.838 217.892 261.485 217.892 262.149V269.373H218.862C219.135 269.373 219.33 269.427 219.449 269.536C219.567 269.637 219.626 269.773 219.626 269.946C219.626 270.11 219.567 270.246 219.449 270.356C219.33 270.465 219.135 270.52 218.862 270.52H215.789C215.507 270.52 215.307 270.465 215.189 270.356C215.07 270.246 215.011 270.11 215.011 269.946C215.011 269.773 215.07 269.637 215.189 269.536C215.307 269.427 215.507 269.373 215.789 269.373H216.745V262.34C216.745 261.53 216.449 260.847 215.858 260.292C215.266 259.728 214.474 259.446 213.482 259.446C212.726 259.446 212.071 259.6 211.515 259.91C210.96 260.21 210.168 260.966 209.14 262.177V269.373H210.437C210.71 269.373 210.906 269.427 211.024 269.536C211.142 269.637 211.201 269.773 211.201 269.946C211.201 270.11 211.142 270.246 211.024 270.356C210.906 270.465 210.71 270.52 210.437 270.52H206.695C206.422 270.52 206.227 270.465 206.108 270.356C205.99 270.246 205.931 270.11 205.931 269.946C205.931 269.773 205.99 269.637 206.108 269.536C206.227 269.427 206.422 269.373 206.695 269.373H207.993V259.855H207.023C206.75 259.855 206.554 259.801 206.436 259.691C206.318 259.582 206.258 259.441 206.258 259.268C206.258 259.104 206.318 258.968 206.436 258.858C206.554 258.749 206.75 258.695 207.023 258.695H209.14ZM231.541 270.52V268.867C229.876 270.269 228.096 270.97 226.202 270.97C224.828 270.97 223.754 270.624 222.98 269.932C222.206 269.231 221.819 268.376 221.819 267.365C221.819 266.255 222.329 265.285 223.349 264.457C224.368 263.628 225.857 263.214 227.814 263.214C228.342 263.214 228.915 263.251 229.534 263.324C230.153 263.387 230.822 263.492 231.541 263.638V261.781C231.541 261.152 231.25 260.606 230.668 260.142C230.085 259.678 229.211 259.446 228.046 259.446C227.154 259.446 225.902 259.705 224.291 260.224C223.999 260.315 223.813 260.36 223.731 260.36C223.585 260.36 223.458 260.306 223.349 260.197C223.248 260.087 223.198 259.951 223.198 259.787C223.198 259.632 223.244 259.509 223.335 259.418C223.462 259.282 223.977 259.095 224.878 258.858C226.298 258.476 227.372 258.285 228.1 258.285C229.548 258.285 230.677 258.644 231.487 259.364C232.297 260.074 232.702 260.879 232.702 261.781V269.373H234.231C234.514 269.373 234.714 269.427 234.832 269.536C234.951 269.637 235.01 269.773 235.01 269.946C235.01 270.11 234.951 270.246 234.832 270.356C234.714 270.465 234.514 270.52 234.231 270.52H231.541ZM231.541 264.812C231.004 264.657 230.435 264.543 229.835 264.471C229.234 264.398 228.601 264.361 227.937 264.361C226.271 264.361 224.969 264.721 224.031 265.44C223.321 265.977 222.966 266.619 222.966 267.365C222.966 268.057 223.235 268.64 223.772 269.113C224.318 269.586 225.11 269.823 226.148 269.823C227.14 269.823 228.059 269.627 228.906 269.236C229.762 268.835 230.64 268.203 231.541 267.338V264.812ZM247.43 259.446C247.43 259.182 247.485 258.99 247.594 258.872C247.703 258.754 247.84 258.695 248.004 258.695C248.176 258.695 248.318 258.754 248.427 258.872C248.536 258.99 248.591 259.191 248.591 259.473V261.439C248.591 261.712 248.536 261.908 248.427 262.026C248.318 262.145 248.176 262.204 248.004 262.204C247.849 262.204 247.717 262.154 247.608 262.054C247.507 261.953 247.448 261.79 247.43 261.562C247.375 261.016 247.093 260.565 246.583 260.21C245.837 259.7 244.849 259.446 243.62 259.446C242.337 259.446 241.34 259.705 240.63 260.224C240.093 260.615 239.824 261.052 239.824 261.535C239.824 262.081 240.143 262.536 240.78 262.9C241.217 263.155 242.046 263.351 243.265 263.487C244.858 263.66 245.964 263.856 246.583 264.075C247.466 264.393 248.122 264.835 248.55 265.399C248.987 265.963 249.205 266.573 249.205 267.229C249.205 268.203 248.736 269.072 247.799 269.837C246.861 270.592 245.486 270.97 243.675 270.97C241.863 270.97 240.38 270.51 239.224 269.591C239.224 269.901 239.205 270.101 239.169 270.192C239.133 270.283 239.064 270.36 238.964 270.424C238.873 270.488 238.768 270.52 238.65 270.52C238.486 270.52 238.35 270.46 238.24 270.342C238.131 270.224 238.077 270.028 238.077 269.755V267.393C238.077 267.12 238.127 266.924 238.227 266.805C238.336 266.687 238.477 266.628 238.65 266.628C238.814 266.628 238.95 266.687 239.06 266.805C239.178 266.915 239.237 267.065 239.237 267.256C239.237 267.675 239.342 268.025 239.551 268.307C239.87 268.744 240.375 269.109 241.067 269.4C241.768 269.682 242.624 269.823 243.634 269.823C245.127 269.823 246.238 269.545 246.966 268.99C247.694 268.435 248.058 267.848 248.058 267.229C248.058 266.519 247.689 265.95 246.952 265.522C246.206 265.094 245.118 264.807 243.689 264.662C242.269 264.516 241.249 264.325 240.63 264.088C240.011 263.851 239.529 263.496 239.183 263.023C238.837 262.55 238.664 262.04 238.664 261.494C238.664 260.511 239.146 259.732 240.111 259.159C241.076 258.576 242.228 258.285 243.566 258.285C245.15 258.285 246.438 258.672 247.43 259.446ZM85.3488 285.383V292.989C86.7325 291.186 88.4029 290.285 90.3601 290.285C92.035 290.285 93.4688 290.895 94.6613 292.115C95.8538 293.325 96.4501 294.814 96.4501 296.58C96.4501 298.364 95.8447 299.875 94.634 301.113C93.4324 302.351 92.0077 302.97 90.3601 302.97C88.3574 302.97 86.687 302.069 85.3488 300.267V302.52H82.6588C82.3857 302.52 82.19 302.465 82.0717 302.356C81.9533 302.246 81.8942 302.11 81.8942 301.946C81.8942 301.773 81.9533 301.637 82.0717 301.536C82.19 301.427 82.3857 301.373 82.6588 301.373H84.2018V286.544H82.6588C82.3857 286.544 82.19 286.489 82.0717 286.38C81.9533 286.27 81.8942 286.129 81.8942 285.956C81.8942 285.793 81.9533 285.656 82.0717 285.547C82.19 285.438 82.3857 285.383 82.6588 285.383H85.3488ZM95.3031 296.634C95.3031 295.187 94.807 293.963 93.8147 292.961C92.8225 291.951 91.6618 291.446 90.3328 291.446C89.0037 291.446 87.8431 291.951 86.8508 292.961C85.8586 293.963 85.3625 295.187 85.3625 296.634C85.3625 298.082 85.8586 299.311 86.8508 300.321C87.8431 301.322 89.0037 301.823 90.3328 301.823C91.6618 301.823 92.8225 301.322 93.8147 300.321C94.807 299.311 95.3031 298.082 95.3031 296.634ZM111.478 296.634C111.478 298.382 110.85 299.875 109.594 301.113C108.347 302.351 106.84 302.97 105.074 302.97C103.29 302.97 101.774 302.351 100.527 301.113C99.2802 299.866 98.6567 298.373 98.6567 296.634C98.6567 294.887 99.2802 293.394 100.527 292.156C101.774 290.908 103.29 290.285 105.074 290.285C106.84 290.285 108.347 290.904 109.594 292.142C110.85 293.38 111.478 294.877 111.478 296.634ZM110.318 296.634C110.318 295.196 109.803 293.972 108.775 292.961C107.755 291.951 106.517 291.446 105.061 291.446C103.604 291.446 102.362 291.955 101.333 292.975C100.313 293.985 99.8037 295.205 99.8037 296.634C99.8037 298.054 100.313 299.274 101.333 300.294C102.362 301.313 103.604 301.823 105.061 301.823C106.517 301.823 107.755 301.318 108.775 300.307C109.803 299.288 110.318 298.064 110.318 296.634ZM103.258 286.871C103.258 287.181 103.149 287.445 102.931 287.663C102.712 287.873 102.448 287.977 102.139 287.977C101.838 287.977 101.579 287.868 101.36 287.65C101.142 287.431 101.033 287.172 101.033 286.871C101.033 286.562 101.142 286.298 101.36 286.079C101.579 285.861 101.838 285.752 102.139 285.752C102.448 285.752 102.712 285.861 102.931 286.079C103.149 286.298 103.258 286.562 103.258 286.871ZM109.116 286.871C109.116 287.181 109.007 287.445 108.788 287.663C108.57 287.873 108.306 287.977 107.996 287.977C107.687 287.977 107.423 287.868 107.205 287.65C106.995 287.431 106.89 287.172 106.89 286.871C106.89 286.562 106.995 286.298 107.205 286.079C107.423 285.861 107.687 285.752 107.996 285.752C108.306 285.752 108.57 285.861 108.788 286.079C109.007 286.298 109.116 286.562 109.116 286.871ZM125.251 291.855V291.473C125.251 291.191 125.305 290.99 125.414 290.872C125.524 290.754 125.66 290.695 125.824 290.695C125.997 290.695 126.138 290.754 126.247 290.872C126.357 290.99 126.411 291.191 126.411 291.473V294.067C126.402 294.349 126.343 294.55 126.234 294.668C126.134 294.786 125.997 294.846 125.824 294.846C125.669 294.846 125.537 294.796 125.428 294.695C125.328 294.586 125.269 294.409 125.251 294.163C125.196 293.517 124.768 292.902 123.967 292.319C123.175 291.737 122.105 291.446 120.758 291.446C119.056 291.446 117.763 291.978 116.88 293.043C115.997 294.108 115.556 295.328 115.556 296.703C115.556 298.186 116.043 299.411 117.017 300.376C117.991 301.341 119.252 301.823 120.799 301.823C121.691 301.823 122.597 301.659 123.516 301.332C124.445 301.004 125.282 300.476 126.029 299.748C126.22 299.566 126.388 299.475 126.534 299.475C126.689 299.475 126.816 299.529 126.916 299.638C127.026 299.739 127.08 299.866 127.08 300.021C127.08 300.412 126.621 300.908 125.701 301.509C124.217 302.483 122.565 302.97 120.744 302.97C118.897 302.97 117.376 302.383 116.184 301.209C115 300.025 114.409 298.528 114.409 296.716C114.409 294.868 115.014 293.334 116.225 292.115C117.445 290.895 118.978 290.285 120.826 290.285C122.583 290.285 124.058 290.808 125.251 291.855ZM133.533 297.413V302.52H130.844C130.57 302.52 130.375 302.465 130.256 302.356C130.138 302.246 130.079 302.11 130.079 301.946C130.079 301.773 130.138 301.637 130.256 301.536C130.375 301.427 130.57 301.373 130.844 301.373H132.386V286.544H130.844C130.57 286.544 130.375 286.489 130.256 286.38C130.138 286.27 130.079 286.129 130.079 285.956C130.079 285.793 130.138 285.656 130.256 285.547C130.375 285.438 130.57 285.383 130.844 285.383H133.533V295.952L138.408 291.855H137.821C137.548 291.855 137.352 291.801 137.234 291.691C137.116 291.582 137.056 291.446 137.056 291.282C137.056 291.109 137.116 290.968 137.234 290.858C137.352 290.749 137.548 290.695 137.821 290.695H141.494C141.776 290.695 141.977 290.749 142.095 290.858C142.213 290.968 142.272 291.109 142.272 291.282C142.272 291.446 142.213 291.582 142.095 291.691C141.977 291.801 141.776 291.855 141.494 291.855H140.17L135.691 295.597L141.358 301.373H142.682C142.964 301.373 143.165 301.427 143.283 301.536C143.401 301.637 143.46 301.773 143.46 301.946C143.46 302.11 143.401 302.246 143.283 302.356C143.165 302.465 142.964 302.52 142.682 302.52H138.968C138.695 302.52 138.499 302.465 138.381 302.356C138.263 302.246 138.203 302.11 138.203 301.946C138.203 301.773 138.263 301.637 138.381 301.536C138.499 301.427 138.695 301.373 138.968 301.373H139.774L134.844 296.307L133.533 297.413ZM157.465 296.88H145.776C145.977 298.364 146.596 299.561 147.633 300.471C148.68 301.373 149.973 301.823 151.511 301.823C152.367 301.823 153.264 301.682 154.201 301.4C155.139 301.118 155.904 300.744 156.495 300.28C156.668 300.144 156.818 300.075 156.946 300.075C157.091 300.075 157.219 300.135 157.328 300.253C157.437 300.362 157.492 300.494 157.492 300.649C157.492 300.804 157.419 300.954 157.274 301.099C156.837 301.555 156.058 301.982 154.939 302.383C153.828 302.774 152.686 302.97 151.511 302.97C149.545 302.97 147.902 302.328 146.582 301.045C145.271 299.752 144.616 298.191 144.616 296.361C144.616 294.695 145.23 293.266 146.459 292.074C147.697 290.881 149.226 290.285 151.047 290.285C152.922 290.285 154.465 290.899 155.676 292.128C156.887 293.348 157.483 294.932 157.465 296.88ZM156.304 295.719C156.076 294.454 155.476 293.426 154.502 292.634C153.537 291.842 152.385 291.446 151.047 291.446C149.709 291.446 148.557 291.837 147.592 292.62C146.627 293.403 146.027 294.436 145.79 295.719H156.304ZM165.283 290.695V293.589C166.776 292.242 167.891 291.377 168.629 290.995C169.375 290.604 170.063 290.408 170.691 290.408C171.373 290.408 172.006 290.64 172.589 291.104C173.18 291.559 173.476 291.905 173.476 292.142C173.476 292.315 173.417 292.461 173.299 292.579C173.189 292.688 173.048 292.743 172.875 292.743C172.784 292.743 172.707 292.729 172.643 292.702C172.58 292.665 172.461 292.561 172.288 292.388C171.97 292.069 171.692 291.851 171.455 291.732C171.219 291.614 170.986 291.555 170.759 291.555C170.258 291.555 169.653 291.755 168.943 292.156C168.242 292.556 167.022 293.535 165.283 295.091V301.373H170.363C170.645 301.373 170.845 301.427 170.964 301.536C171.082 301.637 171.141 301.773 171.141 301.946C171.141 302.11 171.082 302.246 170.964 302.356C170.845 302.465 170.645 302.52 170.363 302.52H161.364C161.091 302.52 160.896 302.469 160.777 302.369C160.659 302.26 160.6 302.124 160.6 301.96C160.6 301.805 160.654 301.677 160.764 301.577C160.882 301.468 161.082 301.414 161.364 301.414H164.136V291.855H162.02C161.747 291.855 161.551 291.801 161.433 291.691C161.314 291.582 161.255 291.441 161.255 291.268C161.255 291.104 161.31 290.968 161.419 290.858C161.537 290.749 161.738 290.695 162.02 290.695H165.283ZM200.693 302.52L199.819 301.168C199 302.369 197.944 302.97 196.651 302.97C195.559 302.97 194.598 302.538 193.77 301.673C192.941 300.808 192.527 299.752 192.527 298.505C192.527 297.54 192.805 296.684 193.36 295.938C193.925 295.192 194.698 294.673 195.681 294.381C195.008 293.298 194.603 292.588 194.466 292.251C194.339 291.905 194.275 291.55 194.275 291.186C194.275 290.285 194.616 289.498 195.299 288.824C195.982 288.141 196.801 287.8 197.757 287.8C198.066 287.8 198.376 287.845 198.685 287.936C198.995 288.027 199.305 288.168 199.614 288.36C200.005 288.159 200.247 288.059 200.338 288.059C200.492 288.059 200.624 288.118 200.734 288.237C200.852 288.346 200.911 288.483 200.911 288.646C200.911 288.756 200.879 288.856 200.816 288.947C200.752 289.038 200.624 289.133 200.433 289.234L199.546 289.711C199.264 289.457 198.972 289.27 198.672 289.152C198.381 289.024 198.08 288.96 197.771 288.96C197.143 288.96 196.592 289.193 196.118 289.657C195.654 290.121 195.422 290.64 195.422 291.213C195.422 291.805 195.832 292.752 196.651 294.054L199.819 299.092C200.374 298.045 200.811 296.835 201.13 295.46H202.249C202.522 295.46 202.718 295.515 202.837 295.624C202.955 295.733 203.014 295.87 203.014 296.034C203.014 296.152 202.978 296.261 202.905 296.361C202.841 296.461 202.764 296.53 202.673 296.566C202.582 296.602 202.359 296.621 202.004 296.621C201.567 298.159 201.066 299.352 200.502 300.198L201.28 301.373H202.249C202.522 301.373 202.718 301.427 202.837 301.536C202.955 301.637 203.014 301.773 203.014 301.946C203.014 302.11 202.955 302.246 202.837 302.356C202.718 302.465 202.522 302.52 202.249 302.52H200.693ZM196.173 295.392C195.408 295.574 194.798 295.947 194.343 296.511C193.897 297.067 193.674 297.731 193.674 298.505C193.674 299.424 193.975 300.207 194.575 300.854C195.185 301.5 195.868 301.823 196.624 301.823C197.643 301.823 198.485 301.25 199.15 300.103L196.173 295.392ZM225.916 297.413V302.52H223.226C222.953 302.52 222.757 302.465 222.639 302.356C222.52 302.246 222.461 302.11 222.461 301.946C222.461 301.773 222.52 301.637 222.639 301.536C222.757 301.427 222.953 301.373 223.226 301.373H224.769V286.544H223.226C222.953 286.544 222.757 286.489 222.639 286.38C222.52 286.27 222.461 286.129 222.461 285.956C222.461 285.793 222.52 285.656 222.639 285.547C222.757 285.438 222.953 285.383 223.226 285.383H225.916V295.952L230.79 291.855H230.203C229.93 291.855 229.734 291.801 229.616 291.691C229.498 291.582 229.439 291.446 229.439 291.282C229.439 291.109 229.498 290.968 229.616 290.858C229.734 290.749 229.93 290.695 230.203 290.695H233.876C234.159 290.695 234.359 290.749 234.477 290.858C234.596 290.968 234.655 291.109 234.655 291.282C234.655 291.446 234.596 291.582 234.477 291.691C234.359 291.801 234.159 291.855 233.876 291.855H232.552L228.073 295.597L233.74 301.373H235.064C235.347 301.373 235.547 301.427 235.665 301.536C235.783 301.637 235.843 301.773 235.843 301.946C235.843 302.11 235.783 302.246 235.665 302.356C235.547 302.465 235.347 302.52 235.064 302.52H231.35C231.077 302.52 230.881 302.465 230.763 302.356C230.645 302.246 230.586 302.11 230.586 301.946C230.586 301.773 230.645 301.637 230.763 301.536C230.881 301.427 231.077 301.373 231.35 301.373H232.156L227.227 296.307L225.916 297.413ZM246.938 302.52V300.867C245.273 302.269 243.493 302.97 241.599 302.97C240.225 302.97 239.151 302.624 238.377 301.932C237.603 301.231 237.216 300.376 237.216 299.365C237.216 298.255 237.726 297.285 238.746 296.457C239.765 295.628 241.254 295.214 243.211 295.214C243.739 295.214 244.312 295.251 244.931 295.324C245.55 295.387 246.219 295.492 246.938 295.638V293.781C246.938 293.152 246.647 292.606 246.065 292.142C245.482 291.678 244.608 291.446 243.443 291.446C242.551 291.446 241.299 291.705 239.688 292.224C239.397 292.315 239.21 292.36 239.128 292.36C238.982 292.36 238.855 292.306 238.746 292.197C238.645 292.087 238.595 291.951 238.595 291.787C238.595 291.632 238.641 291.509 238.732 291.418C238.859 291.282 239.374 291.095 240.275 290.858C241.695 290.476 242.769 290.285 243.497 290.285C244.945 290.285 246.074 290.644 246.884 291.364C247.694 292.074 248.099 292.879 248.099 293.781V301.373H249.628C249.911 301.373 250.111 301.427 250.229 301.536C250.348 301.637 250.407 301.773 250.407 301.946C250.407 302.11 250.348 302.246 250.229 302.356C250.111 302.465 249.911 302.52 249.628 302.52H246.938ZM246.938 296.812C246.401 296.657 245.832 296.543 245.232 296.471C244.631 296.398 243.998 296.361 243.334 296.361C241.668 296.361 240.366 296.721 239.428 297.44C238.718 297.977 238.363 298.619 238.363 299.365C238.363 300.057 238.632 300.64 239.169 301.113C239.715 301.586 240.507 301.823 241.545 301.823C242.537 301.823 243.457 301.627 244.303 301.236C245.159 300.835 246.037 300.203 246.938 299.338V296.812ZM258.28 291.855V301.373H263.319C263.592 301.373 263.787 301.427 263.906 301.536C264.024 301.637 264.083 301.773 264.083 301.946C264.083 302.11 264.024 302.246 263.906 302.356C263.787 302.465 263.592 302.52 263.319 302.52H254.347C254.074 302.52 253.879 302.465 253.76 302.356C253.642 302.246 253.583 302.11 253.583 301.946C253.583 301.773 253.642 301.637 253.76 301.536C253.879 301.427 254.074 301.373 254.347 301.373H257.119V291.855H254.634C254.361 291.855 254.165 291.801 254.047 291.691C253.929 291.582 253.87 291.441 253.87 291.268C253.87 291.104 253.929 290.968 254.047 290.858C254.165 290.749 254.361 290.695 254.634 290.695H257.119V288.96C257.119 287.995 257.511 287.158 258.294 286.448C259.077 285.738 260.114 285.383 261.407 285.383C262.49 285.383 263.646 285.483 264.875 285.683C265.34 285.756 265.617 285.843 265.708 285.943C265.808 286.043 265.858 286.175 265.858 286.339C265.858 286.503 265.804 286.639 265.695 286.748C265.585 286.848 265.44 286.899 265.258 286.899C265.185 286.899 265.062 286.885 264.889 286.858C263.514 286.648 262.354 286.544 261.407 286.544C260.406 286.544 259.632 286.789 259.086 287.281C258.549 287.772 258.28 288.332 258.28 288.96V290.695H263.646C263.919 290.695 264.115 290.749 264.233 290.858C264.352 290.968 264.411 291.109 264.411 291.282C264.411 291.446 264.352 291.582 264.233 291.691C264.115 291.801 263.919 291.855 263.646 291.855H258.28ZM273.677 291.855V301.373H278.716C278.989 301.373 279.184 301.427 279.303 301.536C279.421 301.637 279.48 301.773 279.48 301.946C279.48 302.11 279.421 302.246 279.303 302.356C279.184 302.465 278.989 302.52 278.716 302.52H269.745C269.471 302.52 269.276 302.465 269.157 302.356C269.039 302.246 268.98 302.11 268.98 301.946C268.98 301.773 269.039 301.637 269.157 301.536C269.276 301.427 269.471 301.373 269.745 301.373H272.516V291.855H270.031C269.758 291.855 269.562 291.801 269.444 291.691C269.326 291.582 269.267 291.441 269.267 291.268C269.267 291.104 269.326 290.968 269.444 290.858C269.562 290.749 269.758 290.695 270.031 290.695H272.516V288.96C272.516 287.995 272.908 287.158 273.691 286.448C274.474 285.738 275.511 285.383 276.804 285.383C277.887 285.383 279.043 285.483 280.272 285.683C280.737 285.756 281.014 285.843 281.105 285.943C281.205 286.043 281.255 286.175 281.255 286.339C281.255 286.503 281.201 286.639 281.092 286.748C280.982 286.848 280.837 286.899 280.655 286.899C280.582 286.899 280.459 286.885 280.286 286.858C278.911 286.648 277.751 286.544 276.804 286.544C275.803 286.544 275.029 286.789 274.483 287.281C273.946 287.772 273.677 288.332 273.677 288.96V290.695H279.043C279.316 290.695 279.512 290.749 279.631 290.858C279.749 290.968 279.808 291.109 279.808 291.282C279.808 291.446 279.749 291.582 279.631 291.691C279.512 291.801 279.316 291.855 279.043 291.855H273.677ZM296.038 296.88H284.35C284.55 298.364 285.169 299.561 286.207 300.471C287.253 301.373 288.546 301.823 290.085 301.823C290.94 301.823 291.837 301.682 292.775 301.4C293.712 301.118 294.477 300.744 295.069 300.28C295.241 300.144 295.392 300.075 295.519 300.075C295.665 300.075 295.792 300.135 295.901 300.253C296.011 300.362 296.065 300.494 296.065 300.649C296.065 300.804 295.992 300.954 295.847 301.099C295.41 301.555 294.632 301.982 293.512 302.383C292.401 302.774 291.259 302.97 290.085 302.97C288.118 302.97 286.475 302.328 285.155 301.045C283.844 299.752 283.189 298.191 283.189 296.361C283.189 294.695 283.803 293.266 285.032 292.074C286.27 290.881 287.8 290.285 289.62 290.285C291.496 290.285 293.039 290.899 294.249 292.128C295.46 293.348 296.056 294.932 296.038 296.88ZM294.877 295.719C294.65 294.454 294.049 293.426 293.075 292.634C292.11 291.842 290.958 291.446 289.62 291.446C288.282 291.446 287.131 291.837 286.166 292.62C285.201 293.403 284.6 294.436 284.363 295.719H294.877Z" fill="white"/>
<path d="M113.161 170.516C113.161 168.87 114.495 167.536 116.141 167.536V167.536C117.786 167.536 119.12 168.87 119.12 170.516V171.321C119.12 171.808 119.026 172.291 118.843 172.742L118.019 174.775C117.51 176.03 117.528 177.437 118.067 178.679L118.263 179.129C118.81 180.391 118.82 181.821 118.288 183.089L118.042 183.676C117.518 184.923 117.518 186.329 118.042 187.576L118.265 188.109C118.81 189.409 118.786 190.878 118.199 192.16L118.11 192.354C117.543 193.591 117.5 195.004 117.991 196.273L118.388 197.299C118.858 198.515 118.839 199.865 118.335 201.067L118.042 201.766C117.518 203.013 117.518 204.419 118.042 205.666L118.261 206.189C118.808 207.495 118.782 208.971 118.188 210.256L118.118 210.407C117.546 211.643 117.499 213.058 117.987 214.33L118.515 215.707C118.908 216.73 118.956 217.854 118.653 218.907L118.221 220.412C117.959 221.323 117.959 222.289 118.221 223.2L118.721 224.941C118.982 225.848 118.983 226.81 118.725 227.717L118.216 229.503C117.957 230.412 117.959 231.376 118.221 232.284L118.965 234.859C119.068 235.215 119.12 235.583 119.12 235.953V236.917C119.12 238.562 117.786 239.896 116.141 239.896V239.896C114.495 239.896 113.161 238.562 113.161 236.917V236.068C113.161 235.609 113.244 235.154 113.405 234.724L114.183 232.648C114.607 231.516 114.611 230.27 114.194 229.137L113.804 228.078C113.389 226.949 113.391 225.709 113.81 224.582L114.188 223.562C114.609 222.429 114.609 221.183 114.188 220.051L113.785 218.964C113.381 217.877 113.365 216.684 113.738 215.587L114.233 214.127C114.625 212.975 114.586 211.72 114.125 210.594L113.907 210.06C113.427 208.889 113.406 207.58 113.846 206.394L114.188 205.472C114.609 204.339 114.609 203.093 114.188 201.961L113.787 200.88C113.382 199.79 113.367 198.592 113.744 197.492L114.23 196.071C114.623 194.921 114.589 193.668 114.132 192.542L113.897 191.964C113.424 190.796 113.404 189.494 113.843 188.313L114.188 187.382C114.609 186.249 114.609 185.003 114.188 183.871L113.824 182.89C113.397 181.739 113.404 180.471 113.845 179.325L114.167 178.487C114.601 177.358 114.615 176.111 114.207 174.973L113.388 172.69C113.238 172.272 113.161 171.832 113.161 171.388V170.516Z" fill="#292929"/>
<path d="M260.435 170.516C260.435 168.87 261.769 167.536 263.414 167.536V167.536C265.06 167.536 266.394 168.87 266.394 170.516V171.321C266.394 171.808 266.3 172.291 266.116 172.742L265.292 174.775C264.784 176.03 264.801 177.437 265.341 178.679L265.536 179.129C266.084 180.391 266.093 181.821 265.561 183.089L265.315 183.676C264.792 184.923 264.792 186.329 265.315 187.576L265.538 188.109C266.083 189.409 266.06 190.878 265.472 192.16L265.383 192.354C264.817 193.591 264.774 195.004 265.264 196.273L265.661 197.299C266.131 198.515 266.112 199.865 265.608 201.067L265.315 201.766C264.792 203.013 264.792 204.419 265.315 205.666L265.534 206.189C266.082 207.495 266.055 208.971 265.461 210.256L265.391 210.407C264.82 211.643 264.772 213.058 265.26 214.33L265.789 215.707C266.181 216.73 266.23 217.854 265.927 218.907L265.494 220.412C265.232 221.323 265.232 222.289 265.494 223.2L265.995 224.941C266.255 225.848 266.257 226.81 265.998 227.717L265.49 229.503C265.231 230.412 265.232 231.376 265.495 232.284L266.239 234.859C266.341 235.215 266.394 235.583 266.394 235.953V236.917C266.394 238.562 265.06 239.896 263.414 239.896V239.896C261.769 239.896 260.435 238.562 260.435 236.917V236.068C260.435 235.609 260.517 235.154 260.678 234.724L261.456 232.648C261.88 231.516 261.884 230.27 261.467 229.137L261.078 228.078C260.663 226.949 260.665 225.709 261.083 224.582L261.462 223.562C261.882 222.429 261.882 221.183 261.462 220.051L261.058 218.964C260.655 217.877 260.638 216.684 261.011 215.587L261.507 214.127C261.898 212.975 261.86 211.72 261.399 210.594L261.18 210.06C260.701 208.889 260.679 207.58 261.119 206.394L261.462 205.472C261.882 204.339 261.882 203.093 261.462 201.961L261.061 200.88C260.656 199.79 260.64 198.592 261.017 197.492L261.503 196.071C261.897 194.921 261.862 193.668 261.405 192.542L261.171 191.964C260.697 190.796 260.678 189.494 261.116 188.313L261.462 187.382C261.882 186.249 261.882 185.003 261.462 183.871L261.098 182.89C260.67 181.739 260.678 180.471 261.119 179.325L261.441 178.487C261.875 177.358 261.889 176.111 261.48 174.973L260.661 172.69C260.511 172.272 260.435 171.832 260.435 171.388V170.516Z" fill="#292929"/>
<path d="M0.364258 166.687C0.364258 164.336 2.26995 162.431 4.62073 162.431H306.293C307.061 162.431 307.771 162.844 308.149 163.513C308.938 164.909 310.927 164.967 311.797 163.621L311.901 163.459C312.316 162.818 313.027 162.431 313.791 162.431H316.865C320.115 162.431 324.495 167.749 324.495 167.749C324.495 167.749 320.115 173.498 316.865 173.498H313.885C313.074 173.498 312.329 173.049 311.95 172.332L311.868 172.178C311.055 170.64 308.832 170.699 308.101 172.278C307.757 173.021 307.012 173.498 306.193 173.498H4.62073C2.26994 173.498 0.364258 171.592 0.364258 169.241V166.687Z" fill="#292929"/>
<path d="M0.364258 0.256466C0.364258 -2.09432 2.26995 -4 4.62074 -4C6.97152 -4 8.87721 -2.09431 8.87721 0.256477V398.03C8.87721 398.732 8.56474 399.397 8.02472 399.845C6.88806 400.788 6.88807 402.532 8.02472 403.474C8.56473 403.922 8.87721 404.587 8.87721 405.289V405.793C8.87721 408.274 4.83356 411.858 4.83356 411.858C4.83356 411.858 0.364258 408.274 0.364258 405.793V405.289C0.364258 404.587 0.676736 403.922 1.21675 403.474C2.3534 402.532 2.35341 400.788 1.21675 399.845C0.676734 399.397 0.364258 398.732 0.364258 398.03V0.256466Z" fill="#292929"/>
<path fill-rule="evenodd" clip-rule="evenodd" d="M88.5386 75.6796C75.9185 68.8706 65.4875 67.7136 57.72 67.9659C40.8551 68.5137 28.8915 76.0028 21.0943 85.4716C13.2232 95.0303 9.64169 106.56 9.64169 114.917C9.64169 120.586 12.3156 132.203 19.7557 142.414C27.0895 152.48 38.9986 161.124 57.6613 161.363C76.967 161.609 86.9223 157.156 92.0454 152.441C97.1389 147.753 97.9333 142.363 97.9333 139.63C97.9333 134.986 93.4706 129.076 84.3775 130.471C82.109 130.819 80.5626 132.102 79.62 133.821C78.6377 135.611 78.3547 137.826 78.7564 139.698C79.1583 141.571 80.1196 142.685 81.2448 143.094C82.0752 143.396 83.491 143.495 85.6198 142.615C85.9971 142.459 87.2001 143.709 87.6229 143.487C88.0999 143.237 87.803 141.505 88.3397 141.16C89.723 140.268 93.4943 141.359 93.4943 141.359C93.1636 143.741 93.0377 145.692 90.9404 146.892C90.5579 147.111 89.2777 146.065 88.8999 146.254C88.4709 146.469 88.3831 147.915 87.9609 148.092C84.7909 149.415 81.8217 149.644 79.2091 148.695C75.6081 147.386 73.624 144.182 72.93 140.948C72.2358 137.714 72.7063 134.034 74.3953 130.955C76.1241 127.803 79.1669 125.241 83.474 124.58C96.0015 122.659 103.892 131.16 103.892 139.63C103.892 143.452 102.769 150.671 96.0809 156.826C89.4227 162.954 77.7333 167.579 57.5852 167.321C36.7941 167.056 23.2227 157.292 14.9394 145.923C6.76237 134.7 3.68262 121.857 3.68262 114.917C3.68262 105.118 7.78374 92.2615 16.4942 81.6836C25.2786 71.0159 38.7956 62.6184 57.5265 62.01C66.1821 61.7288 77.6858 63.0531 91.3682 70.4351C100.691 75.4653 117.321 84.9413 136.628 95.9435C150.285 103.726 165.282 112.272 179.981 120.548C197.75 130.553 215.103 140.174 229.202 147.621C236.253 151.346 242.469 154.515 247.505 156.912C252.605 159.34 256.31 160.886 258.425 161.47C262.882 162.701 269.961 161.508 276.103 157.604C282.127 153.774 286.746 147.655 286.984 139.542C287.175 133.025 284.308 126.97 279.926 122.5C275.513 118 269.831 115.375 264.755 115.375C258.938 115.375 254.808 115.664 252.561 117.31C249.039 119.891 248.518 124.074 249.369 128.566C250.22 133.059 255.554 134.175 258.308 134.336C260.607 134.47 262.699 133.647 263.841 132.846C264.411 132.446 264.744 131.944 264.959 131.143C265.331 130.292 266.506 130.235 266.511 129.866C266.511 129.228 265.004 128.892 264.959 128.566C264.619 126.06 267.362 123.907 267.362 123.907C267.362 123.907 270.546 125.608 270.864 127.951C270.901 128.222 269.685 129.39 269.703 129.654C269.743 130.213 270.903 130.329 270.864 130.852C270.645 133.798 269.299 135.89 267.063 137.459C264.455 139.29 261.056 139.855 257.944 139.673C251.907 139.322 244.474 134.761 243.623 128.377C242.772 121.992 243.623 116.506 248.915 112.628C252.69 109.861 258.493 109.416 264.755 109.416C271.761 109.416 278.901 112.944 284.181 118.328C289.491 123.744 293.187 131.306 292.94 139.717C292.631 150.264 286.564 158.015 279.3 162.633C272.153 167.176 263.341 169.009 256.839 167.214C254.159 166.474 250.021 164.71 244.943 162.293C239.801 159.845 233.503 156.633 226.419 152.891C212.246 145.405 194.837 135.751 177.057 125.74C162.261 117.41 147.222 108.839 133.556 101.052C114.323 90.092 97.8132 80.6835 88.5386 75.6796Z" fill="#292929"/>
<path fill-rule="evenodd" clip-rule="evenodd" d="M167.31 124.898C154.444 112.952 131.557 113.77 118.489 126.839C109.916 135.412 106.789 144.085 107.141 150.204C107.316 153.243 108.33 155.56 109.822 157.092C111.288 158.597 113.437 159.578 116.382 159.578C120.732 159.578 123.899 154.222 121.006 149.872C120.814 149.583 121.496 148.454 121.249 148.176C120.992 147.887 119.805 148.45 119.486 148.176C118.237 147.105 119.033 142.423 119.033 142.423C119.033 142.423 121.931 142.423 123.364 143.652C123.715 143.952 124.044 144.263 124.353 144.583C124.992 145.245 124.089 146.052 124.353 146.384C124.7 146.818 125.864 146.435 126.144 146.892C130.928 154.712 126.151 165.537 116.382 165.537C112.014 165.537 108.263 164.033 105.553 161.25C102.87 158.494 101.432 154.721 101.192 150.546C100.714 142.239 104.9 132.001 114.275 122.625C129.449 107.451 155.987 106.252 171.364 120.531C176.429 125.234 181.723 134.878 183.718 143.802C184.72 148.28 184.984 152.974 183.652 156.951C182.244 161.149 179.11 164.334 174.018 165.466C162.839 167.95 154.191 155.795 160.631 145.828C160.863 145.47 162.053 146.18 162.324 145.828C162.534 145.556 161.817 144.22 162.051 143.952C163.3 141.997 167.131 141.997 167.131 141.997C167.131 141.997 168.142 146.041 166.536 147.876C166.328 148.114 165.053 147.635 164.878 147.876C164.622 148.228 165.484 149.302 165.295 149.659C162.387 155.134 167.082 160.903 172.725 159.649C175.702 158.987 177.233 157.349 178.001 155.057C178.843 152.545 178.793 149.083 177.903 145.102C176.116 137.109 171.323 128.624 167.31 124.898Z" fill="#292929"/>
<path fill-rule="evenodd" clip-rule="evenodd" d="M18.0139 191.733C12.4932 199.758 9.60703 209.612 10.6916 219.051C12.126 231.534 17.106 239.336 22.1748 242.641C24.6832 244.277 27.1615 244.797 29.3566 244.432C31.5363 244.069 33.7655 242.778 35.7001 240.175C38.3873 236.559 36.6731 231.784 32.7099 230.594C32.1203 230.417 31.268 228.832 30.5859 228.829C29.9212 228.827 29.8352 230.402 29.0961 230.594C27.5035 231.008 24.2011 228.404 24.2011 228.404C24.2011 228.404 26.2266 224.987 27.8191 224.573C28.5575 224.381 29.4548 225.927 30.1602 225.85C31.0236 225.756 31.0569 224.32 31.8628 224.383C41.1845 225.114 46.3576 235.824 40.4831 243.729C37.7683 247.383 34.252 249.658 30.3353 250.31C26.434 250.96 22.465 249.944 18.9201 247.633C11.8822 243.044 6.33171 233.31 4.77151 219.731C3.50005 208.666 6.88701 197.394 13.1043 188.356C19.3191 179.321 28.522 172.29 39.1451 169.97C46.1178 168.446 57.234 169.661 65.6977 173.291C69.9431 175.112 73.9148 177.703 76.2838 181.252C78.79 185.006 79.2981 189.544 77.0295 194.445C74.4229 200.075 68.9585 202.915 63.7234 202.518C59.1654 202.172 54.9883 199.394 53.0693 194.445C52.8735 193.94 54.0556 193.199 53.9088 192.649C53.7972 192.231 52.3459 192.013 52.2647 191.57C51.9683 189.951 54.1216 186.477 54.1216 186.477C54.1216 186.477 57.8299 188.878 58.1263 190.496C58.2212 191.015 56.9498 191.778 57.1011 192.224C57.3017 192.814 58.9451 193.059 59.2294 193.528C60.4302 195.507 62.2994 196.434 64.174 196.576C66.969 196.788 70.0758 195.281 71.6218 191.941C73.0444 188.868 72.6473 186.538 71.3275 184.56C69.8705 182.378 67.0955 180.374 63.3491 178.768C55.8294 175.543 45.9821 174.575 40.417 175.791C31.5369 177.731 23.5371 183.704 18.0139 191.733Z" fill="#292929"/>
</g>
<defs>
<filter id="filter0_d_190_3186" x="-11.5539" y="-6.55389" width="342.008" height="427.35" filterUnits="userSpaceOnUse" color-interpolation-filters="sRGB">
<feFlood flood-opacity="0" result="BackgroundImageFix"/>
<feColorMatrix in="SourceAlpha" type="matrix" values="0 0 0 0 0 0 0 0 0 0 0 0 0 0 0 0 0 0 127 0" result="hardAlpha"/>
<feOffset dx="1.70259" dy="1.70259"/>
<feGaussianBlur stdDeviation="2.12824"/>
<feComposite in2="hardAlpha" operator="out"/>
<feColorMatrix type="matrix" values="0 0 0 0 0 0 0 0 0 0 0 0 0 0 0 0 0 0 0.25 0"/>
<feBlend mode="normal" in2="BackgroundImageFix" result="effect1_dropShadow_190_3186"/>
<feBlend mode="normal" in="SourceGraphic" in2="effect1_dropShadow_190_3186" result="shape"/>
</filter>
</defs>
</svg>
