<svg width="776" height="876" viewBox="0 0 776 876" fill="none" xmlns="http://www.w3.org/2000/svg">
<g filter="url(#filter0_d_190_3180)">
<ellipse cx="445" cy="558.71" rx="310" ry="150" fill="#292929"/>
<path d="M320.114 518.651H317.035L306.673 495.072H306.16V527.216H311.132C311.774 527.216 312.233 527.344 312.512 527.601C312.79 527.836 312.929 528.157 312.929 528.563C312.929 528.948 312.79 529.269 312.512 529.526C312.233 529.782 311.774 529.911 311.132 529.911H301.187C300.546 529.911 300.086 529.782 299.808 529.526C299.53 529.269 299.391 528.948 299.391 528.563C299.391 528.157 299.53 527.836 299.808 527.601C300.086 527.344 300.546 527.216 301.187 527.216H303.465V495.072H301.765C301.123 495.072 300.663 494.954 300.385 494.719C300.107 494.462 299.968 494.131 299.968 493.725C299.968 493.318 300.107 492.997 300.385 492.762C300.663 492.505 301.123 492.377 301.765 492.377H308.373L318.575 515.603L328.616 492.377H335.224C335.887 492.377 336.357 492.505 336.636 492.762C336.914 492.997 337.053 493.318 337.053 493.725C337.053 494.131 336.914 494.462 336.636 494.719C336.357 494.954 335.887 495.072 335.224 495.072H333.556V527.216H335.801C336.464 527.216 336.935 527.344 337.213 527.601C337.491 527.836 337.63 528.157 337.63 528.563C337.63 528.948 337.491 529.269 337.213 529.526C336.935 529.782 336.464 529.911 335.801 529.911H325.889C325.247 529.911 324.777 529.782 324.477 529.526C324.199 529.269 324.06 528.948 324.06 528.563C324.06 528.157 324.199 527.836 324.477 527.601C324.755 527.344 325.226 527.216 325.889 527.216H330.861V495.072H330.284L320.114 518.651ZM362.254 529.911V526.029C358.341 529.322 354.16 530.969 349.711 530.969C346.482 530.969 343.958 530.156 342.14 528.531C340.323 526.884 339.414 524.874 339.414 522.5C339.414 519.891 340.611 517.613 343.007 515.667C345.402 513.721 348.899 512.748 353.497 512.748C354.737 512.748 356.084 512.833 357.539 513.004C358.993 513.154 360.565 513.4 362.254 513.742V509.379C362.254 507.904 361.57 506.621 360.201 505.53C358.833 504.439 356.779 503.894 354.042 503.894C351.946 503.894 349.005 504.503 345.22 505.722C344.536 505.936 344.097 506.043 343.905 506.043C343.563 506.043 343.263 505.915 343.007 505.658C342.771 505.402 342.654 505.081 342.654 504.696C342.654 504.332 342.761 504.044 342.974 503.83C343.274 503.509 344.482 503.07 346.599 502.514C349.936 501.616 352.459 501.167 354.17 501.167C357.571 501.167 360.223 502.012 362.126 503.701C364.03 505.369 364.981 507.262 364.981 509.379V527.216H368.574C369.237 527.216 369.708 527.344 369.986 527.601C370.264 527.836 370.403 528.157 370.403 528.563C370.403 528.948 370.264 529.269 369.986 529.526C369.708 529.782 369.237 529.911 368.574 529.911H362.254ZM362.254 516.501C360.993 516.138 359.656 515.87 358.244 515.699C356.833 515.528 355.347 515.443 353.785 515.443C349.872 515.443 346.813 516.287 344.611 517.977C342.942 519.239 342.108 520.746 342.108 522.5C342.108 524.125 342.739 525.494 344.001 526.606C345.284 527.718 347.145 528.274 349.583 528.274C351.914 528.274 354.074 527.815 356.063 526.895C358.073 525.954 360.137 524.468 362.254 522.436V516.501ZM394.546 488.303V495.264H390.568V488.303H394.546ZM394.706 504.856H378.699C378.057 504.856 377.597 504.728 377.319 504.471C377.041 504.215 376.902 503.883 376.902 503.477C376.902 503.092 377.03 502.771 377.287 502.514C377.565 502.258 378.036 502.129 378.699 502.129H397.401V531.803C397.401 534.092 396.931 536.006 395.99 537.546C395.049 539.085 393.637 540.336 391.755 541.299C390.45 541.962 388.9 542.293 387.103 542.293H378.538C377.897 542.293 377.437 542.165 377.159 541.908C376.881 541.673 376.742 541.352 376.742 540.946C376.742 540.54 376.881 540.208 377.159 539.951C377.437 539.695 377.897 539.567 378.538 539.567L387.039 539.599C389.328 539.599 391.178 538.85 392.589 537.353C394.001 535.856 394.706 534.006 394.706 531.803V504.856ZM441.915 516.084C441.915 520.19 440.439 523.698 437.488 526.606C434.558 529.515 431.019 530.969 426.87 530.969C422.678 530.969 419.117 529.515 416.187 526.606C413.257 523.676 411.792 520.169 411.792 516.084C411.792 511.978 413.257 508.471 416.187 505.562C419.117 502.632 422.678 501.167 426.87 501.167C431.019 501.167 434.558 502.621 437.488 505.53C440.439 508.438 441.915 511.957 441.915 516.084ZM439.188 516.084C439.188 512.705 437.98 509.829 435.563 507.455C433.168 505.081 430.259 503.894 426.837 503.894C423.416 503.894 420.496 505.091 418.08 507.487C415.684 509.861 414.487 512.726 414.487 516.084C414.487 519.42 415.684 522.286 418.08 524.682C420.496 527.077 423.416 528.274 426.837 528.274C430.259 528.274 433.168 527.088 435.563 524.714C437.98 522.318 439.188 519.442 439.188 516.084ZM459.803 502.129V508.93C463.31 505.765 465.93 503.733 467.662 502.835C469.416 501.916 471.031 501.456 472.506 501.456C474.11 501.456 475.597 502.001 476.965 503.092C478.356 504.161 479.051 504.974 479.051 505.53C479.051 505.936 478.912 506.278 478.634 506.556C478.377 506.813 478.045 506.941 477.639 506.941C477.425 506.941 477.243 506.909 477.094 506.845C476.944 506.76 476.666 506.514 476.26 506.107C475.511 505.359 474.859 504.846 474.303 504.567C473.747 504.289 473.201 504.15 472.667 504.15C471.49 504.15 470.068 504.621 468.4 505.562C466.753 506.503 463.888 508.802 459.803 512.459V527.216H471.736C472.399 527.216 472.87 527.344 473.148 527.601C473.426 527.836 473.565 528.157 473.565 528.563C473.565 528.948 473.426 529.269 473.148 529.526C472.87 529.782 472.399 529.911 471.736 529.911H450.596C449.954 529.911 449.494 529.793 449.216 529.558C448.938 529.301 448.799 528.98 448.799 528.595C448.799 528.232 448.928 527.932 449.184 527.697C449.462 527.44 449.933 527.312 450.596 527.312H457.108V504.856H452.136C451.494 504.856 451.034 504.728 450.756 504.471C450.478 504.215 450.339 503.883 450.339 503.477C450.339 503.092 450.467 502.771 450.724 502.514C451.002 502.258 451.473 502.129 452.136 502.129H459.803ZM490.49 502.129V506.204C492.372 504.3 494.072 502.985 495.591 502.258C497.109 501.531 498.82 501.167 500.724 501.167C502.777 501.167 504.648 501.605 506.338 502.482C507.535 503.124 508.615 504.193 509.578 505.69C510.561 507.166 511.053 508.684 511.053 510.246V527.216H513.331C513.973 527.216 514.432 527.344 514.71 527.601C514.988 527.836 515.128 528.157 515.128 528.563C515.128 528.948 514.988 529.269 514.71 529.526C514.432 529.782 513.973 529.911 513.331 529.911H506.113C505.45 529.911 504.98 529.782 504.702 529.526C504.424 529.269 504.285 528.948 504.285 528.563C504.285 528.157 504.424 527.836 504.702 527.601C504.98 527.344 505.45 527.216 506.113 527.216H508.359V510.695C508.359 508.791 507.664 507.187 506.273 505.883C504.883 504.557 503.023 503.894 500.692 503.894C498.917 503.894 497.377 504.257 496.072 504.985C494.768 505.69 492.907 507.465 490.49 510.31V527.216H493.538C494.179 527.216 494.639 527.344 494.917 527.601C495.195 527.836 495.334 528.157 495.334 528.563C495.334 528.948 495.195 529.269 494.917 529.526C494.639 529.782 494.179 529.911 493.538 529.911H484.748C484.106 529.911 483.647 529.782 483.369 529.526C483.09 529.269 482.951 528.948 482.951 528.563C482.951 528.157 483.09 527.836 483.369 527.601C483.647 527.344 484.106 527.216 484.748 527.216H487.796V504.856H485.518C484.876 504.856 484.416 504.728 484.138 504.471C483.86 504.215 483.721 503.883 483.721 503.477C483.721 503.092 483.86 502.771 484.138 502.514C484.416 502.258 484.876 502.129 485.518 502.129H490.49ZM543.12 529.911V526.029C539.207 529.322 535.026 530.969 530.577 530.969C527.348 530.969 524.824 530.156 523.006 528.531C521.188 526.884 520.28 524.874 520.28 522.5C520.28 519.891 521.477 517.613 523.872 515.667C526.268 513.721 529.764 512.748 534.363 512.748C535.603 512.748 536.95 512.833 538.405 513.004C539.859 513.154 541.431 513.4 543.12 513.742V509.379C543.12 507.904 542.436 506.621 541.067 505.53C539.698 504.439 537.645 503.894 534.908 503.894C532.812 503.894 529.871 504.503 526.086 505.722C525.402 505.936 524.963 506.043 524.771 506.043C524.429 506.043 524.129 505.915 523.872 505.658C523.637 505.402 523.52 505.081 523.52 504.696C523.52 504.332 523.627 504.044 523.84 503.83C524.14 503.509 525.348 503.07 527.465 502.514C530.802 501.616 533.325 501.167 535.036 501.167C538.437 501.167 541.089 502.012 542.992 503.701C544.895 505.369 545.847 507.262 545.847 509.379V527.216H549.44C550.103 527.216 550.574 527.344 550.852 527.601C551.13 527.836 551.269 528.157 551.269 528.563C551.269 528.948 551.13 529.269 550.852 529.526C550.574 529.782 550.103 529.911 549.44 529.911H543.12ZM543.12 516.501C541.859 516.138 540.522 515.87 539.11 515.699C537.699 515.528 536.212 515.443 534.651 515.443C530.738 515.443 527.679 516.287 525.476 517.977C523.808 519.239 522.974 520.746 522.974 522.5C522.974 524.125 523.605 525.494 524.867 526.606C526.15 527.718 528.011 528.274 530.449 528.274C532.78 528.274 534.94 527.815 536.929 526.895C538.939 525.954 541.003 524.468 543.12 522.436V516.501ZM580.448 503.894C580.448 503.274 580.577 502.824 580.833 502.546C581.09 502.268 581.411 502.129 581.796 502.129C582.202 502.129 582.534 502.268 582.79 502.546C583.047 502.824 583.175 503.295 583.175 503.958V508.577C583.175 509.219 583.047 509.679 582.79 509.957C582.534 510.235 582.202 510.374 581.796 510.374C581.432 510.374 581.122 510.256 580.865 510.021C580.63 509.786 580.491 509.401 580.448 508.866C580.32 507.583 579.657 506.524 578.459 505.69C576.706 504.493 574.385 503.894 571.498 503.894C568.483 503.894 566.141 504.503 564.473 505.722C563.211 506.642 562.58 507.669 562.58 508.802C562.58 510.085 563.328 511.155 564.826 512.01C565.852 512.609 567.798 513.069 570.664 513.389C574.407 513.796 577.005 514.256 578.459 514.769C580.534 515.517 582.074 516.555 583.079 517.881C584.105 519.207 584.619 520.639 584.619 522.179C584.619 524.468 583.517 526.51 581.315 528.307C579.112 530.082 575.882 530.969 571.626 530.969C567.371 530.969 563.885 529.889 561.168 527.729C561.168 528.456 561.126 528.927 561.04 529.141C560.955 529.354 560.794 529.536 560.559 529.686C560.345 529.836 560.099 529.911 559.821 529.911C559.436 529.911 559.115 529.772 558.859 529.493C558.602 529.215 558.474 528.756 558.474 528.114V522.564C558.474 521.923 558.591 521.463 558.827 521.185C559.083 520.907 559.415 520.768 559.821 520.768C560.206 520.768 560.527 520.907 560.783 521.185C561.061 521.441 561.2 521.794 561.2 522.243C561.2 523.227 561.446 524.051 561.938 524.714C562.687 525.74 563.874 526.596 565.499 527.28C567.146 527.943 569.156 528.274 571.53 528.274C575.038 528.274 577.647 527.622 579.358 526.318C581.069 525.013 581.924 523.634 581.924 522.179C581.924 520.511 581.058 519.174 579.326 518.169C577.572 517.164 575.016 516.49 571.659 516.148C568.322 515.806 565.927 515.357 564.473 514.801C563.018 514.245 561.885 513.411 561.072 512.299C560.259 511.187 559.853 509.989 559.853 508.706C559.853 506.396 560.987 504.567 563.254 503.22C565.521 501.851 568.226 501.167 571.37 501.167C575.091 501.167 578.117 502.076 580.448 503.894ZM199.661 563.65V581.519C202.912 577.284 206.836 575.167 211.434 575.167C215.37 575.167 218.738 576.6 221.54 579.466C224.341 582.31 225.742 585.807 225.742 589.956C225.742 594.148 224.32 597.698 221.475 600.606C218.652 603.515 215.305 604.969 211.434 604.969C206.729 604.969 202.805 602.852 199.661 598.617V603.911H193.341C192.7 603.911 192.24 603.782 191.962 603.526C191.684 603.269 191.545 602.948 191.545 602.563C191.545 602.157 191.684 601.836 191.962 601.601C192.24 601.344 192.7 601.216 193.341 601.216H196.966V566.377H193.341C192.7 566.377 192.24 566.249 191.962 565.992C191.684 565.736 191.545 565.404 191.545 564.998C191.545 564.613 191.684 564.292 191.962 564.035C192.24 563.779 192.7 563.65 193.341 563.65H199.661ZM223.047 590.084C223.047 586.684 221.882 583.807 219.551 581.455C217.22 579.081 214.493 577.894 211.37 577.894C208.248 577.894 205.521 579.081 203.19 581.455C200.859 583.807 199.693 586.684 199.693 590.084C199.693 593.485 200.859 596.372 203.19 598.746C205.521 601.098 208.248 602.274 211.37 602.274C214.493 602.274 217.22 601.098 219.551 598.746C221.882 596.372 223.047 593.485 223.047 590.084ZM261.049 590.084C261.049 594.19 259.573 597.698 256.622 600.606C253.692 603.515 250.153 604.969 246.004 604.969C241.812 604.969 238.251 603.515 235.321 600.606C232.391 597.676 230.926 594.169 230.926 590.084C230.926 585.978 232.391 582.471 235.321 579.562C238.251 576.632 241.812 575.167 246.004 575.167C250.153 575.167 253.692 576.621 256.622 579.53C259.573 582.438 261.049 585.957 261.049 590.084ZM258.322 590.084C258.322 586.705 257.114 583.829 254.697 581.455C252.302 579.081 249.393 577.894 245.972 577.894C242.55 577.894 239.63 579.091 237.214 581.487C234.819 583.861 233.621 586.726 233.621 590.084C233.621 593.42 234.819 596.286 237.214 598.682C239.63 601.077 242.55 602.274 245.972 602.274C249.393 602.274 252.302 601.088 254.697 598.714C257.114 596.318 258.322 593.442 258.322 590.084ZM241.737 567.147C241.737 567.874 241.48 568.494 240.967 569.008C240.454 569.5 239.834 569.746 239.107 569.746C238.401 569.746 237.791 569.489 237.278 568.976C236.765 568.462 236.508 567.853 236.508 567.147C236.508 566.42 236.765 565.8 237.278 565.286C237.791 564.773 238.401 564.517 239.107 564.517C239.834 564.517 240.454 564.773 240.967 565.286C241.48 565.8 241.737 566.42 241.737 567.147ZM255.499 567.147C255.499 567.874 255.243 568.494 254.729 569.008C254.216 569.5 253.596 569.746 252.869 569.746C252.142 569.746 251.521 569.489 251.008 568.976C250.516 568.462 250.27 567.853 250.27 567.147C250.27 566.42 250.516 565.8 251.008 565.286C251.521 564.773 252.142 564.517 252.869 564.517C253.596 564.517 254.216 564.773 254.729 565.286C255.243 565.8 255.499 566.42 255.499 567.147ZM293.405 578.856V577.958C293.405 577.295 293.533 576.824 293.79 576.546C294.046 576.268 294.367 576.129 294.752 576.129C295.158 576.129 295.49 576.268 295.747 576.546C296.003 576.824 296.132 577.295 296.132 577.958V584.053C296.11 584.716 295.971 585.187 295.715 585.465C295.479 585.743 295.158 585.882 294.752 585.882C294.389 585.882 294.078 585.764 293.822 585.529C293.587 585.272 293.448 584.855 293.405 584.278C293.276 582.759 292.271 581.316 290.389 579.947C288.529 578.578 286.016 577.894 282.851 577.894C278.851 577.894 275.814 579.145 273.74 581.647C271.665 584.149 270.628 587.015 270.628 590.245C270.628 593.731 271.772 596.607 274.061 598.874C276.349 601.141 279.311 602.274 282.947 602.274C285.043 602.274 287.171 601.889 289.331 601.12C291.512 600.35 293.48 599.109 295.233 597.398C295.682 596.971 296.078 596.757 296.42 596.757C296.784 596.757 297.083 596.885 297.319 597.142C297.575 597.377 297.703 597.676 297.703 598.04C297.703 598.96 296.623 600.125 294.463 601.537C290.977 603.825 287.096 604.969 282.818 604.969C278.477 604.969 274.905 603.59 272.104 600.831C269.324 598.051 267.933 594.533 267.933 590.277C267.933 585.935 269.356 582.332 272.2 579.466C275.066 576.6 278.669 575.167 283.011 575.167C287.139 575.167 290.603 576.397 293.405 578.856ZM312.864 591.913V603.911H306.545C305.903 603.911 305.443 603.782 305.165 603.526C304.887 603.269 304.748 602.948 304.748 602.563C304.748 602.157 304.887 601.836 305.165 601.601C305.443 601.344 305.903 601.216 306.545 601.216H310.17V566.377H306.545C305.903 566.377 305.443 566.249 305.165 565.992C304.887 565.736 304.748 565.404 304.748 564.998C304.748 564.613 304.887 564.292 305.165 564.035C305.443 563.779 305.903 563.65 306.545 563.65H312.864V588.48L324.317 578.856H322.937C322.296 578.856 321.836 578.728 321.558 578.471C321.28 578.215 321.141 577.894 321.141 577.509C321.141 577.103 321.28 576.771 321.558 576.514C321.836 576.258 322.296 576.129 322.937 576.129H331.567C332.23 576.129 332.7 576.258 332.978 576.514C333.256 576.771 333.395 577.103 333.395 577.509C333.395 577.894 333.256 578.215 332.978 578.471C332.7 578.728 332.23 578.856 331.567 578.856H328.455L317.933 587.646L331.246 601.216H334.358C335.021 601.216 335.491 601.344 335.769 601.601C336.047 601.836 336.186 602.157 336.186 602.563C336.186 602.948 336.047 603.269 335.769 603.526C335.491 603.782 335.021 603.911 334.358 603.911H325.632C324.991 603.911 324.531 603.782 324.253 603.526C323.975 603.269 323.836 602.948 323.836 602.563C323.836 602.157 323.975 601.836 324.253 601.601C324.531 601.344 324.991 601.216 325.632 601.216H327.525L315.944 589.314L312.864 591.913ZM369.087 590.662H341.627C342.098 594.148 343.552 596.96 345.99 599.099C348.449 601.216 351.486 602.274 355.101 602.274C357.111 602.274 359.218 601.943 361.42 601.28C363.623 600.617 365.42 599.74 366.81 598.649C367.216 598.329 367.569 598.168 367.868 598.168C368.211 598.168 368.51 598.307 368.767 598.585C369.023 598.842 369.152 599.152 369.152 599.516C369.152 599.879 368.98 600.232 368.638 600.574C367.612 601.644 365.783 602.649 363.153 603.59C360.544 604.509 357.86 604.969 355.101 604.969C350.481 604.969 346.621 603.461 343.52 600.446C340.44 597.409 338.9 593.741 338.9 589.443C338.9 585.529 340.344 582.171 343.231 579.369C346.14 576.568 349.733 575.167 354.01 575.167C358.416 575.167 362.041 576.611 364.885 579.498C367.729 582.364 369.13 586.085 369.087 590.662ZM366.361 587.935C365.826 584.962 364.414 582.545 362.126 580.685C359.859 578.824 357.154 577.894 354.01 577.894C350.866 577.894 348.161 578.813 345.894 580.653C343.627 582.492 342.215 584.919 341.659 587.935H366.361ZM387.456 576.129V582.93C390.964 579.765 393.584 577.733 395.316 576.835C397.07 575.916 398.684 575.456 400.16 575.456C401.764 575.456 403.25 576.001 404.619 577.092C406.009 578.161 406.704 578.974 406.704 579.53C406.704 579.936 406.565 580.278 406.287 580.556C406.031 580.813 405.699 580.941 405.293 580.941C405.079 580.941 404.897 580.909 404.747 580.845C404.598 580.76 404.32 580.514 403.913 580.107C403.165 579.359 402.512 578.846 401.956 578.567C401.4 578.289 400.855 578.15 400.32 578.15C399.144 578.15 397.722 578.621 396.054 579.562C394.407 580.503 391.541 582.802 387.456 586.459V601.216H399.39C400.053 601.216 400.523 601.344 400.802 601.601C401.08 601.836 401.219 602.157 401.219 602.563C401.219 602.948 401.08 603.269 400.802 603.526C400.523 603.782 400.053 603.911 399.39 603.911H378.249C377.608 603.911 377.148 603.793 376.87 603.558C376.592 603.301 376.453 602.98 376.453 602.595C376.453 602.232 376.581 601.932 376.838 601.697C377.116 601.44 377.586 601.312 378.249 601.312H384.762V578.856H379.789C379.148 578.856 378.688 578.728 378.41 578.471C378.132 578.215 377.993 577.883 377.993 577.477C377.993 577.092 378.121 576.771 378.378 576.514C378.656 576.258 379.126 576.129 379.789 576.129H387.456ZM470.646 603.911L468.593 600.735C466.668 603.558 464.187 604.969 461.15 604.969C458.584 604.969 456.327 603.953 454.381 601.922C452.435 599.89 451.462 597.409 451.462 594.479C451.462 592.212 452.114 590.202 453.419 588.448C454.745 586.694 456.563 585.475 458.872 584.791C457.29 582.246 456.338 580.578 456.017 579.787C455.718 578.974 455.568 578.14 455.568 577.284C455.568 575.167 456.37 573.317 457.974 571.734C459.578 570.13 461.503 569.329 463.748 569.329C464.476 569.329 465.203 569.435 465.93 569.649C466.657 569.863 467.384 570.195 468.111 570.644C469.031 570.173 469.598 569.938 469.812 569.938C470.175 569.938 470.485 570.077 470.742 570.355C471.02 570.612 471.159 570.932 471.159 571.317C471.159 571.574 471.084 571.809 470.934 572.023C470.785 572.237 470.485 572.462 470.036 572.697L467.951 573.82C467.288 573.221 466.604 572.782 465.898 572.504C465.213 572.205 464.508 572.055 463.781 572.055C462.305 572.055 461.011 572.601 459.899 573.691C458.808 574.782 458.263 576.001 458.263 577.348C458.263 578.739 459.225 580.963 461.15 584.021L468.593 595.858C469.897 593.399 470.924 590.555 471.672 587.325H474.303C474.944 587.325 475.404 587.454 475.682 587.71C475.96 587.967 476.099 588.288 476.099 588.673C476.099 588.951 476.014 589.207 475.843 589.443C475.693 589.678 475.511 589.838 475.297 589.924C475.083 590.009 474.559 590.052 473.725 590.052C472.699 593.666 471.522 596.468 470.197 598.457L472.025 601.216H474.303C474.944 601.216 475.404 601.344 475.682 601.601C475.96 601.836 476.099 602.157 476.099 602.563C476.099 602.948 475.96 603.269 475.682 603.526C475.404 603.782 474.944 603.911 474.303 603.911H470.646ZM460.027 587.165C458.231 587.593 456.798 588.469 455.729 589.795C454.681 591.1 454.157 592.661 454.157 594.479C454.157 596.639 454.862 598.478 456.274 599.997C457.707 601.515 459.311 602.274 461.086 602.274C463.481 602.274 465.459 600.927 467.021 598.232L460.027 587.165ZM529.903 591.913V603.911H523.584C522.942 603.911 522.482 603.782 522.204 603.526C521.926 603.269 521.787 602.948 521.787 602.563C521.787 602.157 521.926 601.836 522.204 601.601C522.482 601.344 522.942 601.216 523.584 601.216H527.209V566.377H523.584C522.942 566.377 522.482 566.249 522.204 565.992C521.926 565.736 521.787 565.404 521.787 564.998C521.787 564.613 521.926 564.292 522.204 564.035C522.482 563.779 522.942 563.65 523.584 563.65H529.903V588.48L541.356 578.856H539.976C539.335 578.856 538.875 578.728 538.597 578.471C538.319 578.215 538.18 577.894 538.18 577.509C538.18 577.103 538.319 576.771 538.597 576.514C538.875 576.258 539.335 576.129 539.976 576.129H548.606C549.269 576.129 549.739 576.258 550.017 576.514C550.295 576.771 550.435 577.103 550.435 577.509C550.435 577.894 550.295 578.215 550.017 578.471C549.739 578.728 549.269 578.856 548.606 578.856H545.494L534.972 587.646L548.285 601.216H551.397C552.06 601.216 552.53 601.344 552.808 601.601C553.086 601.836 553.225 602.157 553.225 602.563C553.225 602.948 553.086 603.269 552.808 603.526C552.53 603.782 552.06 603.911 551.397 603.911H542.671C542.03 603.911 541.57 603.782 541.292 603.526C541.014 603.269 540.875 602.948 540.875 602.563C540.875 602.157 541.014 601.836 541.292 601.601C541.57 601.344 542.03 601.216 542.671 601.216H544.564L532.983 589.314L529.903 591.913ZM579.293 603.911V600.029C575.38 603.322 571.199 604.969 566.75 604.969C563.521 604.969 560.997 604.156 559.179 602.531C557.362 600.884 556.453 598.874 556.453 596.5C556.453 593.891 557.65 591.613 560.046 589.667C562.441 587.721 565.938 586.748 570.536 586.748C571.776 586.748 573.123 586.833 574.578 587.004C576.032 587.154 577.604 587.4 579.293 587.742V583.379C579.293 581.904 578.609 580.621 577.24 579.53C575.872 578.439 573.819 577.894 571.081 577.894C568.985 577.894 566.045 578.503 562.259 579.722C561.575 579.936 561.136 580.043 560.944 580.043C560.602 580.043 560.302 579.915 560.046 579.658C559.81 579.402 559.693 579.081 559.693 578.696C559.693 578.332 559.8 578.044 560.014 577.83C560.313 577.509 561.521 577.07 563.639 576.514C566.975 575.616 569.498 575.167 571.209 575.167C574.61 575.167 577.262 576.012 579.165 577.701C581.069 579.369 582.02 581.262 582.02 583.379V601.216H585.613C586.276 601.216 586.747 601.344 587.025 601.601C587.303 601.836 587.442 602.157 587.442 602.563C587.442 602.948 587.303 603.269 587.025 603.526C586.747 603.782 586.276 603.911 585.613 603.911H579.293ZM579.293 590.501C578.032 590.138 576.695 589.87 575.284 589.699C573.872 589.528 572.386 589.443 570.824 589.443C566.911 589.443 563.852 590.287 561.65 591.977C559.981 593.239 559.147 594.746 559.147 596.5C559.147 598.125 559.778 599.494 561.04 600.606C562.323 601.718 564.184 602.274 566.622 602.274C568.953 602.274 571.113 601.815 573.102 600.895C575.112 599.954 577.176 598.468 579.293 596.436V590.501ZM605.939 578.856V601.216H617.776C618.418 601.216 618.878 601.344 619.156 601.601C619.434 601.836 619.573 602.157 619.573 602.563C619.573 602.948 619.434 603.269 619.156 603.526C618.878 603.782 618.418 603.911 617.776 603.911H596.7C596.058 603.911 595.599 603.782 595.321 603.526C595.043 603.269 594.904 602.948 594.904 602.563C594.904 602.157 595.043 601.836 595.321 601.601C595.599 601.344 596.058 601.216 596.7 601.216H603.212V578.856H597.374C596.732 578.856 596.272 578.728 595.994 578.471C595.716 578.215 595.577 577.883 595.577 577.477C595.577 577.092 595.716 576.771 595.994 576.514C596.272 576.258 596.732 576.129 597.374 576.129H603.212V572.055C603.212 569.788 604.132 567.821 605.971 566.153C607.81 564.484 610.248 563.65 613.285 563.65C615.83 563.65 618.546 563.886 621.434 564.356C622.524 564.527 623.177 564.73 623.39 564.966C623.626 565.201 623.743 565.511 623.743 565.896C623.743 566.281 623.615 566.602 623.358 566.858C623.102 567.094 622.759 567.211 622.332 567.211C622.161 567.211 621.872 567.179 621.466 567.115C618.236 566.623 615.509 566.377 613.285 566.377C610.933 566.377 609.115 566.955 607.832 568.109C606.57 569.264 605.939 570.58 605.939 572.055V576.129H618.546C619.188 576.129 619.648 576.258 619.926 576.514C620.204 576.771 620.343 577.103 620.343 577.509C620.343 577.894 620.204 578.215 619.926 578.471C619.648 578.728 619.188 578.856 618.546 578.856H605.939ZM642.112 578.856V601.216H653.95C654.591 601.216 655.051 601.344 655.329 601.601C655.607 601.836 655.746 602.157 655.746 602.563C655.746 602.948 655.607 603.269 655.329 603.526C655.051 603.782 654.591 603.911 653.95 603.911H632.873C632.232 603.911 631.772 603.782 631.494 603.526C631.216 603.269 631.077 602.948 631.077 602.563C631.077 602.157 631.216 601.836 631.494 601.601C631.772 601.344 632.232 601.216 632.873 601.216H639.385V578.856H633.547C632.905 578.856 632.445 578.728 632.167 578.471C631.889 578.215 631.75 577.883 631.75 577.477C631.75 577.092 631.889 576.771 632.167 576.514C632.445 576.258 632.905 576.129 633.547 576.129H639.385V572.055C639.385 569.788 640.305 567.821 642.144 566.153C643.983 564.484 646.422 563.65 649.458 563.65C652.003 563.65 654.72 563.886 657.607 564.356C658.697 564.527 659.35 564.73 659.564 564.966C659.799 565.201 659.916 565.511 659.916 565.896C659.916 566.281 659.788 566.602 659.531 566.858C659.275 567.094 658.933 567.211 658.505 567.211C658.334 567.211 658.045 567.179 657.639 567.115C654.409 566.623 651.683 566.377 649.458 566.377C647.106 566.377 645.288 566.955 644.005 568.109C642.743 569.264 642.112 570.58 642.112 572.055V576.129H654.72C655.361 576.129 655.821 576.258 656.099 576.514C656.377 576.771 656.516 577.103 656.516 577.509C656.516 577.894 656.377 578.215 656.099 578.471C655.821 578.728 655.361 578.856 654.72 578.856H642.112ZM694.646 590.662H667.186C667.656 594.148 669.111 596.96 671.549 599.099C674.008 601.216 677.045 602.274 680.659 602.274C682.67 602.274 684.776 601.943 686.979 601.28C689.182 600.617 690.978 599.74 692.368 598.649C692.775 598.329 693.128 598.168 693.427 598.168C693.769 598.168 694.069 598.307 694.325 598.585C694.582 598.842 694.71 599.152 694.71 599.516C694.71 599.879 694.539 600.232 694.197 600.574C693.17 601.644 691.342 602.649 688.711 603.59C686.102 604.509 683.418 604.969 680.659 604.969C676.04 604.969 672.179 603.461 669.078 600.446C665.999 597.409 664.459 593.741 664.459 589.443C664.459 585.529 665.903 582.171 668.79 579.369C671.698 576.568 675.291 575.167 679.569 575.167C683.974 575.167 687.599 576.611 690.444 579.498C693.288 582.364 694.689 586.085 694.646 590.662ZM691.919 587.935C691.385 584.962 689.973 582.545 687.685 580.685C685.418 578.824 682.712 577.894 679.569 577.894C676.425 577.894 673.719 578.813 671.452 580.653C669.185 582.492 667.774 584.919 667.218 587.935H691.919Z" fill="white"/>
<path d="M265 295C265 291.134 268.134 288 272 288C275.866 288 279 291.134 279 295V296.891C279 298.036 278.779 299.17 278.349 300.231L276.413 305.008C275.218 307.956 275.259 311.261 276.526 314.179L276.985 315.236C278.272 318.199 278.294 321.559 277.044 324.539L276.466 325.918C275.237 328.849 275.237 332.151 276.466 335.082L276.99 336.332C278.271 339.387 278.215 342.838 276.836 345.849L276.627 346.305C275.296 349.211 275.195 352.531 276.347 355.513L277.279 357.923C278.383 360.779 278.338 363.953 277.154 366.777L276.466 368.418C275.237 371.349 275.237 374.651 276.466 377.582L276.981 378.81C278.267 381.878 278.205 385.345 276.809 388.364L276.645 388.718C275.302 391.623 275.191 394.947 276.337 397.934L277.579 401.17C278.501 403.574 278.615 406.214 277.903 408.688L276.886 412.225C276.271 414.365 276.271 416.635 276.886 418.774L278.063 422.866C278.675 424.996 278.678 427.255 278.071 429.386L276.876 433.581C276.267 435.718 276.272 437.982 276.888 440.116L278.636 446.165C278.877 447.001 279 447.867 279 448.737V451C279 454.866 275.866 458 272 458C268.134 458 265 454.866 265 451V449.005C265 447.927 265.194 446.858 265.572 445.848L267.401 440.97C268.397 438.312 268.406 435.385 267.426 432.722L266.511 430.234C265.536 427.582 265.54 424.669 266.524 422.02L267.414 419.624C268.401 416.963 268.401 414.037 267.414 411.376L266.466 408.822C265.518 406.269 265.478 403.467 266.354 400.888L267.519 397.458C268.438 394.752 268.348 391.804 267.265 389.159L266.751 387.903C265.625 385.152 265.574 382.078 266.609 379.291L267.414 377.124C268.401 374.463 268.401 371.537 267.414 368.876L266.471 366.337C265.52 363.775 265.484 360.962 266.369 358.376L267.511 355.038C268.436 352.337 268.354 349.393 267.281 346.748L266.73 345.389C265.617 342.646 265.571 339.586 266.601 336.811L267.414 334.624C268.401 331.963 268.401 329.037 267.414 326.376L266.558 324.072C265.554 321.367 265.571 318.389 266.607 315.696L267.364 313.727C268.384 311.075 268.417 308.146 267.457 305.472L265.532 300.107C265.18 299.126 265 298.092 265 297.05V295Z" fill="#292929"/>
<path d="M611 295C611 291.134 614.134 288 618 288C621.866 288 625 291.134 625 295V296.891C625 298.036 624.779 299.17 624.349 300.231L622.413 305.008C621.218 307.956 621.259 311.261 622.526 314.179L622.985 315.236C624.272 318.199 624.294 321.559 623.044 324.539L622.466 325.918C621.237 328.849 621.237 332.151 622.466 335.082L622.99 336.332C624.271 339.387 624.215 342.838 622.836 345.849L622.627 346.305C621.296 349.211 621.195 352.531 622.347 355.513L623.279 357.923C624.383 360.779 624.338 363.953 623.154 366.777L622.466 368.418C621.237 371.349 621.237 374.651 622.466 377.582L622.981 378.81C624.267 381.878 624.205 385.345 622.809 388.364L622.645 388.718C621.302 391.623 621.191 394.947 622.337 397.934L623.579 401.17C624.501 403.574 624.615 406.214 623.903 408.688L622.886 412.225C622.271 414.365 622.271 416.635 622.886 418.774L624.063 422.866C624.675 424.996 624.678 427.255 624.071 429.386L622.876 433.581C622.267 435.718 622.272 437.982 622.888 440.116L624.636 446.165C624.877 447.001 625 447.867 625 448.737V451C625 454.866 621.866 458 618 458C614.134 458 611 454.866 611 451V449.005C611 447.927 611.194 446.858 611.572 445.848L613.401 440.97C614.397 438.312 614.406 435.385 613.426 432.722L612.511 430.234C611.536 427.582 611.54 424.669 612.524 422.02L613.414 419.624C614.401 416.963 614.401 414.037 613.414 411.376L612.466 408.822C611.518 406.269 611.478 403.467 612.354 400.888L613.519 397.458C614.438 394.752 614.348 391.804 613.265 389.159L612.751 387.903C611.625 385.152 611.574 382.078 612.609 379.291L613.414 377.124C614.401 374.463 614.401 371.537 613.414 368.876L612.471 366.337C611.52 363.775 611.484 360.962 612.369 358.376L613.511 355.038C614.436 352.337 614.354 349.393 613.281 346.748L612.73 345.389C611.617 342.646 611.571 339.586 612.601 336.811L613.414 334.624C614.401 331.963 614.401 329.037 613.414 326.376L612.558 324.072C611.554 321.367 611.571 318.389 612.607 315.696L613.364 313.727C614.384 311.075 614.417 308.146 613.457 305.472L611.532 300.107C611.18 299.126 611 298.092 611 297.05V295Z" fill="#292929"/>
<path d="M0 286.005C0 280.483 4.47715 276.005 10 276.005H718.736C720.542 276.005 722.209 276.977 723.098 278.549C724.951 281.827 729.623 281.965 731.667 278.803L731.913 278.422C732.887 276.915 734.558 276.005 736.352 276.005H743.574C751.209 276.005 761.5 288.5 761.5 288.5C761.5 288.5 751.209 302.005 743.574 302.005H736.573C734.667 302.005 732.918 300.952 732.027 299.267L731.835 298.905C729.924 295.291 724.701 295.43 722.985 299.14C722.176 300.887 720.427 302.005 718.501 302.005H9.99999C4.47714 302.005 0 297.528 0 292.005V286.005Z" fill="#292929"/>
<path d="M0 -105C0 -110.523 4.47715 -115 10 -115C15.5228 -115 20 -110.523 20 -105V829.514C20 831.163 19.2659 832.725 17.9972 833.778C15.3268 835.992 15.3268 840.089 17.9972 842.304C19.2659 843.356 20 844.919 20 846.567V847.752C20 853.581 10.5 862 10.5 862C10.5 862 0 853.581 0 847.752V846.567C0 844.919 0.734125 843.356 2.00282 842.304C4.67321 840.089 4.67323 835.992 2.00282 833.778C0.73412 832.725 0 831.163 0 829.514V-105Z" fill="#292929"/>
<path fill-rule="evenodd" clip-rule="evenodd" d="M207.151 72.1955C177.502 56.1988 152.996 53.4805 134.747 54.0733C95.1254 55.3603 67.0187 72.9549 48.7004 95.2006C30.2082 117.657 21.7939 144.746 21.7939 164.379C21.7939 177.697 28.0759 204.989 45.5553 228.979C62.7852 252.626 90.7639 272.936 134.609 273.496C179.965 274.076 203.354 263.614 215.39 252.536C227.356 241.523 229.223 228.859 229.223 222.437C229.223 211.528 218.738 197.642 197.375 200.919C192.046 201.737 188.413 204.753 186.198 208.79C183.89 212.997 183.225 218.2 184.169 222.597C185.114 226.997 187.372 229.616 190.016 230.576C191.966 231.286 195.293 231.519 200.294 229.452C201.18 229.085 204.007 232.021 205 231.5C206.12 230.912 205.423 226.844 206.684 226.032C209.934 223.938 218.794 226.5 218.794 226.5C218.017 232.097 217.721 236.68 212.794 239.5C211.895 240.014 208.888 237.555 208 238C206.992 238.505 206.786 241.903 205.794 242.317C198.346 245.427 191.371 245.965 185.233 243.734C176.773 240.659 172.112 233.132 170.481 225.535C168.85 217.936 169.955 209.291 173.924 202.057C177.985 194.652 185.134 188.633 195.253 187.081C224.684 182.567 243.223 202.54 243.223 222.437C243.223 231.418 240.583 248.376 224.871 262.837C209.228 277.234 181.766 288.1 134.43 287.495C85.5849 286.87 53.7006 263.932 34.2402 237.223C15.0294 210.856 7.79395 180.682 7.79395 164.379C7.79395 141.357 17.429 111.152 37.893 86.3011C58.5308 61.2388 90.2871 41.5101 134.293 40.0807C154.628 39.4201 181.654 42.5313 213.799 59.8744C235.703 71.692 274.77 93.9547 320.13 119.803C352.215 138.086 387.448 158.164 421.982 177.607C463.728 201.112 504.496 223.717 537.62 241.213C554.186 249.963 568.789 257.408 580.62 263.04C592.602 268.745 601.307 272.376 606.275 273.748C616.747 276.639 633.378 273.837 647.807 264.665C661.96 255.667 672.811 241.293 673.37 222.232C673.82 206.92 667.085 192.695 656.789 182.195C646.422 171.622 633.072 165.454 621.148 165.454C607.48 165.454 597.777 166.133 592.5 170C584.224 176.065 583 185.892 585 196.446C587 207 599.53 209.623 606 210C611.402 210.315 616.317 208.383 619 206.5C620.338 205.561 621.122 204.38 621.627 202.5C622.5 200.5 625.261 200.366 625.273 199.5C625.273 198 621.731 197.21 621.627 196.446C620.828 190.558 627.273 185.5 627.273 185.5C627.273 185.5 634.753 189.496 635.5 195C635.587 195.637 632.729 198.381 632.773 199C632.866 200.314 635.591 200.586 635.5 201.815C634.985 208.737 631.823 213.652 626.571 217.338C620.443 221.639 612.456 222.966 605.145 222.54C590.963 221.714 573.5 211 571.5 196C569.5 181 571.5 168.111 583.932 159C592.802 152.5 606.435 151.454 621.148 151.454C637.606 151.454 654.38 159.742 666.785 172.393C679.261 185.116 687.945 202.882 687.364 222.643C686.637 247.422 672.383 265.631 655.318 276.48C638.528 287.154 617.825 291.461 602.549 287.243C596.253 285.504 586.532 281.36 574.602 275.681C562.521 269.93 547.726 262.384 531.081 253.592C497.786 236.005 456.885 213.326 415.113 189.806C380.353 170.235 345.019 150.1 312.914 131.805C267.729 106.055 228.941 83.9514 207.151 72.1955Z" fill="#292929"/>
<path fill-rule="evenodd" clip-rule="evenodd" d="M392.214 187.827C361.989 159.761 308.219 161.684 277.516 192.387C257.376 212.527 250.029 232.905 250.857 247.28C251.268 254.419 253.65 259.862 257.156 263.463C260.598 266.998 265.647 269.302 272.567 269.302C282.787 269.302 290.226 256.721 283.43 246.5C282.979 245.821 284.58 243.17 284 242.516C283.398 241.837 280.609 243.158 279.86 242.516C276.924 240 278.794 229 278.794 229C278.794 229 285.603 229 288.971 231.887C289.795 232.593 290.569 233.323 291.294 234.075C292.794 235.63 290.674 237.527 291.294 238.304C292.109 239.325 294.844 238.424 295.502 239.5C306.741 257.871 295.517 283.302 272.567 283.302C262.306 283.302 253.493 279.769 247.126 273.23C240.822 266.757 237.445 257.891 236.88 248.085C235.756 228.568 245.591 204.514 267.617 182.487C303.266 146.838 365.613 144.021 401.741 177.568C413.64 188.618 426.077 211.274 430.764 232.239C433.117 242.76 433.739 253.787 430.607 263.131C427.302 272.995 419.939 280.477 407.975 283.135C381.71 288.972 361.394 260.415 376.525 237C377.069 236.159 379.864 237.826 380.5 237C380.994 236.359 379.31 233.222 379.861 232.592C382.794 228 391.794 228 391.794 228C391.794 228 394.169 237.5 390.397 241.811C389.908 242.369 386.912 241.244 386.5 241.811C385.9 242.638 387.926 245.162 387.481 246C380.65 258.862 391.679 272.415 404.938 269.469C411.932 267.914 415.529 264.065 417.333 258.682C419.311 252.78 419.193 244.646 417.102 235.294C412.903 216.515 401.642 196.582 392.214 187.827Z" fill="#292929"/>
<path fill-rule="evenodd" clip-rule="evenodd" d="M41.464 344.846C28.4939 363.702 21.7132 386.85 24.2613 409.026C27.6311 438.354 39.3309 456.685 51.2393 464.449C57.1325 468.291 62.9549 469.514 68.112 468.656C73.2329 467.803 78.4701 464.771 83.0152 458.655C89.3284 450.159 85.3011 438.94 75.9902 436.145C74.6049 435.729 72.6026 432.006 71 432C69.4386 431.994 69.2365 435.693 67.5 436.145C63.7585 437.118 56 431 56 431C56 431 60.7585 422.973 64.5 422C66.2348 421.549 68.3428 425.181 70 425C72.0285 424.778 72.1067 421.405 74 421.553C95.9 423.271 108.054 448.433 94.2522 467.005C87.8741 475.588 79.6131 480.934 70.4113 482.466C61.2459 483.992 51.9211 481.606 43.5929 476.176C27.0584 465.396 14.0183 442.525 10.3528 410.624C7.36567 384.628 15.3229 358.146 29.9295 336.912C44.5302 315.686 66.1513 299.169 91.1089 293.717C107.49 290.138 133.606 292.993 153.49 301.52C163.464 305.797 172.795 311.886 178.361 320.223C184.249 329.044 185.443 339.704 180.113 351.217C173.989 364.446 161.151 371.118 148.852 370.185C138.144 369.373 128.33 362.845 123.822 351.217C123.362 350.031 126.139 348.292 125.794 347C125.532 346.018 122.122 345.505 121.931 344.463C121.235 340.66 126.294 332.5 126.294 332.5C126.294 332.5 135.006 338.138 135.702 341.941C135.925 343.159 132.938 344.953 133.294 346C133.765 347.387 137.626 347.963 138.294 349.064C141.115 353.715 145.506 355.891 149.911 356.225C156.477 356.723 163.776 353.182 167.408 345.336C170.75 338.116 169.818 332.641 166.717 327.996C163.294 322.868 156.774 318.161 147.973 314.387C130.306 306.811 107.171 304.538 94.0969 307.394C73.2344 311.952 54.44 325.983 41.464 344.846Z" fill="#292929"/>
</g>
<defs>
<filter id="filter0_d_190_3180" x="-28" y="-121" width="803.5" height="1004" filterUnits="userSpaceOnUse" color-interpolation-filters="sRGB">
<feFlood flood-opacity="0" result="BackgroundImageFix"/>
<feColorMatrix in="SourceAlpha" type="matrix" values="0 0 0 0 0 0 0 0 0 0 0 0 0 0 0 0 0 0 127 0" result="hardAlpha"/>
<feOffset dx="4" dy="4"/>
<feGaussianBlur stdDeviation="5"/>
<feComposite in2="hardAlpha" operator="out"/>
<feColorMatrix type="matrix" values="0 0 0 0 0 0 0 0 0 0 0 0 0 0 0 0 0 0 0.25 0"/>
<feBlend mode="normal" in2="BackgroundImageFix" result="effect1_dropShadow_190_3180"/>
<feBlend mode="normal" in="SourceGraphic" in2="effect1_dropShadow_190_3180" result="shape"/>
</filter>
</defs>
</svg>
