<svg width="360" height="1090" viewBox="0 0 360 1090" fill="none" xmlns="http://www.w3.org/2000/svg">
<path d="M590.992 1057.37L527.742 959.527C468.445 1046.5 392.018 1089.98 298.461 1089.98C219.398 1089.98 149.889 1058.68 89.9336 996.094C29.9779 933.503 0 857.076 0 766.813C0 696.974 20.0951 635.042 60.2852 581.016C101.134 526.99 157.137 489.435 228.293 468.352C179.538 389.948 150.219 338.557 140.336 314.18C131.112 289.143 126.5 263.448 126.5 237.094C126.5 171.867 151.207 114.876 200.621 66.1211C250.035 16.707 309.332 -8 378.512 -8C400.913 -8 423.314 -4.70573 445.715 1.88281C468.116 8.47136 490.517 18.6836 512.918 32.5195C541.249 18.0247 558.708 10.7773 565.297 10.7773C576.497 10.7773 586.051 15.0599 593.957 23.625C602.522 31.5313 606.805 41.4141 606.805 53.2734C606.805 61.1797 604.499 68.4271 599.887 75.0156C595.275 81.6042 586.051 88.5221 572.215 95.7695L507.977 130.359C487.552 111.911 466.469 98.405 444.727 89.8399C423.643 80.6159 401.901 76.0039 379.5 76.0039C334.039 76.0039 294.178 92.8047 259.918 126.406C226.316 160.008 209.516 197.563 209.516 239.07C209.516 281.896 239.164 350.417 298.461 444.633L527.742 809.309C567.932 733.54 599.557 645.913 622.617 546.426H703.656C723.422 546.426 737.587 550.379 746.152 558.285C754.718 566.191 759 576.074 759 587.934C759 596.499 756.365 604.405 751.094 611.652C746.482 618.9 740.882 623.841 734.293 626.477C727.704 629.112 711.563 630.43 685.867 630.43C654.242 741.776 618.005 828.086 577.156 889.359L633.488 974.352H703.656C723.422 974.352 737.587 978.305 746.152 986.211C754.718 993.458 759 1003.34 759 1015.86C759 1027.72 754.718 1037.6 746.152 1045.51C737.587 1053.41 723.422 1057.37 703.656 1057.37H590.992ZM263.871 541.484C208.527 554.661 164.384 581.675 131.441 622.523C99.1576 662.714 83.0156 710.81 83.0156 766.813C83.0156 833.357 104.758 890.018 148.242 936.797C192.385 983.576 241.799 1006.96 296.484 1006.96C370.276 1006.96 431.22 965.457 479.316 882.441L263.871 541.484Z" fill="#A3BFA7"/>
</svg>
