<svg width="43" height="40" viewBox="0 0 43 40" fill="none" xmlns="http://www.w3.org/2000/svg">
<path d="M0 25.2778C0 25.738 0.369043 26.1111 0.824281 26.1111L36.9553 26.1111C40.2937 26.1111 43 23.375 43 20C43 16.6249 40.2937 13.8889 36.9553 13.8889L0.82428 13.8889C0.369042 13.8889 0 14.262 0 14.7223C0 15.1825 0.369043 15.5556 0.824281 15.5556L37.3674 15.5555C39.7953 15.5555 41.7636 17.5454 41.7636 20C41.7636 22.4546 39.7953 24.4444 37.3674 24.4444L0.82428 24.4445C0.369042 24.4445 0 24.8176 0 25.2778Z" fill="white"/>
<path d="M0 39.1667C0 39.6269 0.369043 40 0.824281 40L36.9553 39.9999C40.2937 39.9999 43 37.2639 43 33.8888C43 30.5138 40.2937 27.7777 36.9553 27.7777L0.82428 27.7778C0.369042 27.7778 0 28.1509 0 28.6111C0 29.0714 0.369043 29.4445 0.824281 29.4445L37.3674 29.4444C39.7953 29.4444 41.7636 31.4342 41.7636 33.8888C41.7636 36.3434 39.7953 38.3333 37.3674 38.3333L0.82428 38.3333C0.369042 38.3333 0 38.7064 0 39.1667Z" fill="white"/>
<path d="M1.64856 22.2222V20.6944H8.72364C9.14094 20.6944 9.47923 21.0364 9.47923 21.4583C9.47923 21.8802 9.14094 22.2222 8.72364 22.2222H1.64856Z" fill="white"/>
<path d="M1.64856 36.111V34.5833H8.72364C9.14094 34.5833 9.47923 34.9253 9.47923 35.3472C9.47923 35.769 9.14094 36.111 8.72364 36.111H1.64856Z" fill="white"/>
<path d="M43 0.833332C43 0.373095 42.631 0 42.1757 0L6.04473 6.77439e-05C2.70632 6.77439e-05 0 2.7361 0 6.11117C0 9.48624 2.70632 12.2223 6.04473 12.2223L42.1757 12.2222C42.631 12.2222 43 11.8491 43 11.3889C43 10.9286 42.631 10.5555 42.1757 10.5555L5.63259 10.5556C3.20465 10.5556 1.23642 8.56576 1.23642 6.11117C1.23642 3.65657 3.20465 1.66673 5.63259 1.66673L42.1757 1.66666C42.631 1.66666 43 1.29357 43 0.833332Z" fill="white"/>
<path d="M41.3514 3.88895V5.41673H34.2764C33.8591 5.41673 33.5208 5.07472 33.5208 4.65284C33.5208 4.23095 33.8591 3.88895 34.2764 3.88895H41.3514Z" fill="white"/>
</svg>
